<?xml version="1.0" standalone="no"?>
<!DOCTYPE svg PUBLIC "-//W3C//DTD SVG 1.1//EN" "http://www.w3.org/Graphics/SVG/1.1/DTD/svg11.dtd" >
<svg xmlns="http://www.w3.org/2000/svg">
<metadata></metadata>
<defs>
<font id="juraregular" horiz-adv-x="1132" >
<font-face units-per-em="2048" ascent="1602" descent="-446" />
<missing-glyph horiz-adv-x="512" />
<glyph />
<glyph />
<glyph unicode="&#xd;" />
<glyph unicode=" "  horiz-adv-x="512" />
<glyph unicode="&#x09;" horiz-adv-x="512" />
<glyph unicode="&#xa0;" horiz-adv-x="512" />
<glyph unicode="!" horiz-adv-x="333" d="M41 80q0 80 90 80q45 0 67.5 -21.5t22.5 -58.5q0 -80 -90 -80t-90 80zM41 1280q-4 80 90 80q92 0 90 -80l-41 -999q-4 -41 -49 -41t-49 41z" />
<glyph unicode="&#x22;" horiz-adv-x="548" d="M41 1391q0 90 88 90q59 0 76.5 -29.5t15.5 -60.5q-4 -47 -10 -96.5t-17.5 -89.5t-25.5 -65.5t-33 -25.5q-18 0 -32.5 25.5t-25.5 65.5t-20.5 89t-15.5 97zM256 1391q0 90 88 90q59 0 76.5 -29.5t15.5 -60.5q-4 -47 -10 -96.5t-17.5 -89.5t-25.5 -65.5t-33 -25.5 q-18 0 -32.5 25.5t-25.5 65.5t-20.5 89t-15.5 97z" />
<glyph unicode="#" horiz-adv-x="1288" d="M41 467q0 12 2 14l10 60q12 41 51 41h244l31 198h-266q-33 0 -33 25q0 12 2 14l10 62q12 39 51 39h258l64 401q6 39 49 39h41q31 0 31 -23q0 -14 -2 -16l-62 -401h240l63 401q6 39 49 39h41q31 0 31 -23q0 -14 -2 -16l-63 -401h262q33 0 33 -27q0 -4 -1 -7t-1 -7l-11 -60 q-12 -41 -51 -41h-252l-31 -198h275q31 0 31 -23q0 -14 -2 -16l-9 -62q-12 -39 -51 -39h-266l-64 -399q-6 -41 -49 -41h-41q-33 0 -32 27q0 12 2 14l63 399h-240l-63 -399q-6 -41 -49 -41h-41q-31 0 -31 25q0 14 2 16l62 399h-252q-33 0 -33 27zM469 582h240l30 196h-239z " />
<glyph unicode="$" horiz-adv-x="950" d="M41 270v9q0 35 27 34q43 0 55 -41l27 -79q18 -18 43.5 -36t58.5 -34q16 -8 35.5 -15.5t44.5 -11.5v566q-57 29 -104.5 61.5t-82.5 71.5q-88 94 -88 225q0 129 64.5 212t169.5 114l41 12v45q0 41 39 41q41 0 41 -41v-35q8 2 16 2h16q29 0 31 -2v35q0 41 39 41q41 0 41 -41 v-45q10 -2 19.5 -3t19.5 -5q78 -16 164 -62l18 -196q0 -23 -7 -33t-30 -10q-33 0 -45 41l-26 79q-20 18 -43 34t-47 30l-23 12v-514q131 -61 203 -139q80 -90 80 -211q0 -154 -65.5 -249t-182.5 -124l-35 -8v-66q0 -39 -41 -38q-39 0 -39 41v51q-10 -2 -22.5 -2h-22.5h-18 v-52q0 -39 -41 -38q-39 0 -39 41v57q-35 2 -74 12q-94 23 -201 68zM217 1040q0 -80 74 -155l41 -35v391q-16 -8 -31.5 -17.5t-26.5 -23.5q-57 -57 -57 -160zM412 90h6h29.5t27.5 2v504q-14 8 -30.5 15t-32.5 16v-537zM412 797q14 -8 30.5 -15.5t32.5 -15.5v496q-2 2 -24 2 h-19.5t-19.5 -2v-465zM555 115q20 10 35.5 22.5t25.5 22.5q64 69 64 200q0 68 -68 140q-10 12 -25.5 24.5t-31.5 24.5v-434z" />
<glyph unicode="%" horiz-adv-x="1417" d="M41 1020q0 117 46 203t132 120q53 23 115 23q63 0 117.5 -23.5t93.5 -68.5t61.5 -109.5t22.5 -144.5q0 -147 -77 -238.5t-218 -91.5q-66 0 -119 24.5t-92 67.5t-60.5 103.5t-21.5 134.5zM127 -2l979 1360h106l-972 -1360h-113zM170 1020q0 -104 39 -172t125 -68 q80 0 123 62.5t43 173.5q0 123 -39 193.5t-125 70.5q-31 0 -68 -16q-51 -23 -74.5 -87.5t-23.5 -156.5zM717 324q0 117 46 202.5t132 120.5q53 23 115 23q63 0 117.5 -23.5t93.5 -69t61.5 -109.5t22.5 -144q0 -147 -77 -238.5t-218 -91.5q-66 0 -119 24.5t-92 67.5 t-60.5 103.5t-21.5 134.5zM846 324q0 -104 39 -172t125 -68q80 0 123 62t43 173q0 123 -39 194t-125 71q-31 0 -68 -17q-51 -23 -74.5 -87t-23.5 -156z" />
<glyph unicode="&#x26;" horiz-adv-x="1298" d="M41 426q0 74 24.5 141.5t65.5 125t96.5 100.5t116.5 67q-68 94 -68 203q0 141 74 219t203 78q53 0 92 -19.5t65.5 -51.5t39 -71.5t12.5 -78.5q0 -74 -50 -138.5t-175 -130.5l299 -430l41 150h79l-71 -219l157 -219q8 -8 17.5 -16.5t21.5 -14.5l47 -25q23 -12 40.5 -24.5 t17.5 -30.5q0 -41 -35 -41h-152q-33 0 -51 25l-123 165q-80 -190 -352 -190q-98 0 -178 31.5t-136.5 89t-87 135.5t-30.5 170zM219 473q0 -66 24.5 -131.5t65.5 -116.5t95.5 -82.5t115.5 -31.5q104 0 168 39.5t84 99.5l-377 541q-31 -8 -62.5 -35t-57 -68t-41 -95 t-15.5 -120zM420 1137q0 -53 16.5 -103.5t48.5 -103.5q154 61 154 188q0 86 -32 127t-72 41q-63 0 -89 -39t-26 -110z" />
<glyph unicode="'" horiz-adv-x="333" d="M41 1391q0 90 88 90q59 0 76.5 -29.5t15.5 -60.5q-4 -47 -10 -96.5t-17.5 -89.5t-25.5 -65.5t-33 -25.5q-18 0 -32.5 25.5t-25.5 65.5t-20.5 89t-15.5 97z" />
<glyph unicode="(" horiz-adv-x="423" d="M41 739q0 410 190 822q18 39 52 38q29 0 28 -38q-111 -412 -110 -822q-1 -411 110 -819q0 -41 -28 -41q-33 0 -52 41q-190 408 -190 819z" />
<glyph unicode=")" horiz-adv-x="425" d="M41 -80q111 408 111 819q0 410 -111 822q0 39 31 38q33 0 51 -38q190 -410 190 -818q0 -426 -192 -823q-18 -41 -49 -41t-31 41z" />
<glyph unicode="*" horiz-adv-x="575" d="M41 1141q0 20 11 29.5t37 16.5t66 17t95 35q-57 25 -88 34t-48.5 13t-25.5 6t-20 13q-25 14 -25 36q0 23 16.5 39.5t30.5 16.5q18 0 26.5 -4t21 -19.5t36 -46.5t76.5 -86q-14 70 -23.5 101.5t-15.5 46t-8 19.5t-2 22q0 51 49 51t49 -49q0 -16 -3 -26.5t-9 -28 t-14.5 -48.5t-18.5 -86v-2q45 45 68.5 75t37 48t24.5 25.5t32 7.5q18 0 32.5 -20t14.5 -38q0 -23 -11.5 -32t-36 -17t-64.5 -18t-95 -33q68 -29 98.5 -38t44 -12t18.5 -3t21 -10q23 -23 23 -41t-15.5 -36t-31.5 -18q-20 0 -29.5 6.5t-22 23.5t-36 48t-72.5 78 q18 -80 28.5 -111.5t14.5 -42.5l6 -12q2 -2 2 -20q0 -51 -49 -52q-51 0 -51 50q0 20 1 22t6 13.5t14.5 42t25.5 108.5q-55 -55 -76.5 -81t-28 -37t-8.5 -13t-18 -10q-16 -12 -31 -13q-16 0 -32.5 18.5t-16.5 41.5z" />
<glyph unicode="+" horiz-adv-x="940" d="M41 524q0 23 12 35q14 12 37 12l293 -4l-6 301q0 27 12 37q12 12 36 11t38 -13q12 -16 12 -37l6 -303l293 -4q10 0 20.5 -1t18.5 -9q12 -12 13 -37t-11 -39q-16 -12 -39 -12l-293 6l6 -287q0 -25 -12 -37t-35.5 -11t-35.5 13q-14 14 -15 39l-6 283l-295 4q-25 2 -35 12 q-14 14 -14 41z" />
<glyph unicode="," horiz-adv-x="352" d="M41 78q0 84 98 84q100 0 101 -84v-37q0 -27 -7.5 -55.5t-21.5 -51t-39 -38t-57 -15.5q-49 0 -49 33q0 14 10 20.5t22 10.5q4 0 6 1t7 1q23 8 29.5 21.5t9.5 25.5h-11q-98 0 -98 84z" />
<glyph unicode="-" horiz-adv-x="751" d="M41 543q4 47 51 47h498q51 0 51 -47q0 -25 -15.5 -37t-35.5 -12h-500q-53 0 -49 49z" />
<glyph unicode="." horiz-adv-x="354" d="M41 80q0 80 100 80q47 0 74 -21.5t27 -58.5q0 -80 -101 -80q-100 0 -100 80z" />
<glyph unicode="/" horiz-adv-x="712" d="M41 0l440 1481h119l-438 -1481h-121z" />
<glyph unicode="0" horiz-adv-x="1060" d="M41 561q0 559 442 559h23q442 0 442 -559q0 -561 -442 -561h-23q-442 0 -442 561zM207 561q0 -455 287 -477q288 20 288 477q0 455 -288 477q-287 -23 -287 -477z" />
<glyph unicode="1" horiz-adv-x="593" d="M41 1008q0 35 61 51l220 59q41 0 40 -41v-927q0 -23 18.5 -36.5t41 -23.5t41 -23t18.5 -36q0 -31 -39 -31h-321q-39 0 -39 31q0 23 18.5 36t41 23t41 23.5t18.5 36.5v798q0 31 -60 31h-41q-59 0 -59 29z" />
<glyph unicode="2" horiz-adv-x="915" d="M41 41v70q0 37 53 84l369 325q55 49 83.5 107.5t28.5 130.5q0 123 -52 173t-181 50q-117 0 -240 -33q-2 -2 -14 -2q-29 0 -47 33q0 49 41 59q164 84 311 84q88 0 158 -23.5t116 -66.5t69.5 -101.5t21.5 -125.5q-4 -111 -73 -208t-193 -208l-142 -125l-104 -86 q-18 -16 -19 -22q0 -6 15 -6h381q20 0 36.5 18t32 41.5t31.5 42t39 18.5q41 0 41 -39l-31 -174q-8 -57 -51 -57h-639q-41 0 -41 41z" />
<glyph unicode="3" horiz-adv-x="923" d="M41 -115q8 39 49 39q188 -47 285 -47q268 0 268 287q0 111 -58.5 170t-162.5 59h-103q-39 0 -38 47v35q0 39 38 39h103q92 0 142 53.5t50 145.5q0 57 -16 108t-49 90t-82 61.5t-113 22.5q-111 0 -231 -51q-39 0 -51 41q0 33 36.5 58.5t87 42t102.5 25.5t81 9 q96 0 170 -32.5t124 -88t75.5 -129t25.5 -155.5q0 -184 -112 -254q-10 -4 -11 -8q0 -8 11 -13q149 -74 149 -293q0 -84 -26.5 -157.5t-79 -126.5t-131 -84t-181.5 -31q-31 0 -90 8t-117.5 24.5t-101.5 43t-43 61.5z" />
<glyph unicode="4" horiz-adv-x="1116" d="M41 150v51q0 39 20 67l539 797l21 29q20 27 61 26h80q41 0 41 -39v-800q0 -41 39 -41h121q41 0 41 -39v-51q0 -39 -41 -39h-121q-39 0 -39 -41v-271q0 -39 -41 -39h-80q-41 0 -41 39v271q0 41 -39 41h-520q-41 0 -41 39zM195 250q0 -10 26 -10h381q39 0 39 41v620 q0 25 -6 25l-8 -8l-428 -656q-4 -4 -4 -12z" />
<glyph unicode="5" horiz-adv-x="962" d="M41 -121q0 41 41 41q131 -31 235 -31q168 0 264.5 85t96.5 245q0 61 -19.5 115.5t-70.5 93.5t-139.5 61.5t-225.5 22.5q-25 0 -51.5 -1t-54.5 -1q-35 0 -31 41l35 528q4 41 39 41h563q39 0 39 -39v-61q0 -23 -11.5 -31t-27.5 -8h-463q-39 0 -41 -31l-18 -309h47 q168 0 283.5 -30.5t186 -87t101.5 -133.5t31 -169q0 -102 -35 -187t-97.5 -146.5t-151.5 -95.5t-197 -34q-31 0 -85.5 6.5t-108.5 20.5t-94 36.5t-40 57.5z" />
<glyph unicode="6" horiz-adv-x="1005" d="M41 551q0 164 26.5 311.5t89 258t164 176t252.5 65.5q100 0 199 -33q39 -12 39 -49q-8 -33 -35 -33q-12 0 -14 2q-90 18 -160 19q-88 0 -150.5 -31t-103.5 -76t-64.5 -98t-34.5 -99t-14.5 -78t-3.5 -34q0 -14 13 -14q8 0 22 8q90 33 207 33q80 0 156 -27t134 -80t94 -134 t36 -187q0 -109 -35 -193t-94 -141.5t-137 -87t-164 -29.5t-163 31.5t-134 99.5t-91 171.5t-34 248.5zM207 514q0 -395 295 -389q104 2 164.5 88t60.5 246q0 59 -14.5 115.5t-45 99.5t-77.5 69.5t-115 26.5q-96 0 -227 -49q-23 -14 -32 -61.5t-9 -94.5v-51z" />
<glyph unicode="7" horiz-adv-x="993" d="M41 881v198q0 41 41 41h760q39 0 39 -41v-80q0 -37 -17 -77l-442 -1141q-12 -20 -31 -21h-160q-18 0 -18 15q0 10 8 24l520 1121q6 12 7 22q0 18 -27 19h-520q-23 0 -36 -18.5t-24.5 -42t-25 -42t-33.5 -18.5q-41 0 -41 41z" />
<glyph unicode="8" horiz-adv-x="1015" d="M41 399q0 203 172 318q12 6 12 12q0 4 -12 8q-121 115 -121 271q0 74 25.5 137t74 111.5t119 76t160.5 27.5q88 0 158.5 -26.5t121 -75t77 -112t26.5 -136.5q0 -160 -131 -273q-10 -4 -10 -8q0 -8 10 -12q180 -111 180 -326q0 -86 -32.5 -158.5t-90 -127t-136.5 -85 t-171 -30.5q-96 0 -176 31.5t-137.5 87t-88 130t-30.5 160.5zM223 395q0 -123 68.5 -198.5t181.5 -75.5t180.5 71.5t67.5 194.5q0 117 -68.5 191.5t-185.5 74.5q-111 0 -177.5 -70.5t-66.5 -187.5zM246 1001q0 -106 55 -167.5t166 -61.5q119 0 172 67t53 171q0 111 -54 170 t-165 59q-117 0 -172 -63.5t-55 -174.5z" />
<glyph unicode="9" horiz-adv-x="1005" d="M41 670q0 109 34 192.5t94 141t140 87t172 29.5q82 0 157 -31.5t132 -99t90 -171.5t33 -247q0 -180 -29.5 -329.5t-94 -257t-165 -167t-242.5 -59.5q-109 0 -198 33q-39 12 -39 51q2 31 33 31q47 0 90 -9t80 -9q88 0 149.5 28.5t103.5 72.5t66.5 96t36.5 99.5t16.5 80 t4.5 40.5q0 12 -13 13q-8 0 -22 -9q-115 -35 -207 -34q-84 0 -160 26.5t-134 79.5t-93 133t-35 189zM207 662q0 -59 15.5 -114.5t46 -100t77.5 -71t113 -26.5q109 0 229 51q10 4 17.5 19.5t12.5 37t7 45t2 46.5v53q0 205 -71.5 299t-221.5 94q-104 0 -165.5 -84t-61.5 -249z " />
<glyph unicode=":" horiz-adv-x="354" d="M41 86q0 88 100 88q101 0 101 -88q0 -86 -101 -86q-100 0 -100 86zM41 473q0 86 100 86q101 0 101 -86q0 -88 -101 -88q-100 0 -100 88z" />
<glyph unicode=";" horiz-adv-x="352" d="M41 86q0 88 98 88q100 0 101 -88v-37q0 -29 -7.5 -58.5t-21.5 -54t-39 -40t-57 -15.5q-49 0 -49 35q0 14 10 20.5t22 10.5q0 2 2 2q8 0 11 2q23 6 29.5 20.5t9.5 26.5h-11q-98 0 -98 88zM41 471q0 88 98 88q101 0 101 -88q0 -86 -101 -86q-98 0 -98 86z" />
<glyph unicode="&#x3c;" horiz-adv-x="772" d="M41 563q0 10 6 23l445 514q18 20 49 20h100q18 0 18 -14q0 -8 -6 -21l-368 -501q-6 -12 -6 -25q0 -14 6 -22l364 -500q8 -14 8 -25q0 -12 -16 -12h-100q-33 0 -60 20l-432 521q-8 8 -8 22z" />
<glyph unicode="=" horiz-adv-x="933" d="M41 420v8v6q0 35 33 39q2 2 18 2h678h8l21 -6q12 -4 14 -12q4 -4 4 -8l2 -5q2 -2 2 -10v-6v-8l-2 -6q0 -8 -4 -13l2 7v-5l-6 -10l-8 -6l-8 -2q-4 -4 -11 -4h-8h-6h-678h-16l-8 4q-2 2 -5 2q-6 0 -8 2l-6 8q-8 8 -8 23zM41 692q4 47 51 47h678q51 0 51 -47t-51 -47h-678 q-25 0 -39 12.5t-12 34.5z" />
<glyph unicode="&#x3e;" horiz-adv-x="776" d="M41 1104q0 16 20 16l101 -2q35 0 51 -18l444 -516q7 -11 7 -21q0 -14 -9 -22l-432 -521q-27 -20 -61 -20h-101q-18 0 -18 12q0 8 10 25l363 500q8 8 8 24q0 10 -6 23l-371 501q-6 8 -6 19z" />
<glyph unicode="?" horiz-adv-x="888" d="M41 1350q0 31 42 55.5t98.5 40.5t113.5 25.5t86 9.5q104 0 179 -32t123 -86t70.5 -124.5t22.5 -148.5q0 -123 -58.5 -220.5t-156.5 -160.5q-119 -80 -119 -191l-2 -276h-118l-3 278q0 160 142 271q139 109 139 284q0 135 -68.5 211t-203.5 76q-84 0 -238 -41 q-2 -2 -16 -2q-27 0 -33 31zM291 80q0 80 90 80q45 0 67.5 -21.5t22.5 -58.5q0 -80 -90 -80t-90 80z" />
<glyph unicode="@" horiz-adv-x="1675" d="M41 526q0 199 63.5 355.5t171 265t247 165t290.5 56.5q125 0 236.5 -36t201.5 -95t156 -137t96 -164q31 -86 45.5 -170t14.5 -166q0 -236 -81 -357.5t-218 -121.5q-211 0 -260 98q-156 -82 -263 -82q-68 0 -120 30t-87.5 84t-53 128t-17.5 162q0 94 22.5 176t64.5 140 t102.5 92t135.5 34q80 0 187 -47q-2 2 -2 14q0 47 76 47q84 0 84 -51v-627q0 -74 127 -73q137 0 137 344q0 123 -32 239.5t-101.5 207.5t-179 145.5t-265.5 54.5q-115 0 -222.5 -45t-192.5 -134t-136 -220t-51 -301q0 -117 43 -232t129 -207t217 -148t307 -56q98 0 209 15 t240 50q2 2 20 2q33 0 43 -41q-6 -18 -21 -34.5t-40 -24.5q-141 -45 -267 -65.5t-239 -20.5q-193 0 -344.5 63.5t-256.5 169t-160.5 240.5t-55.5 278zM608 582q0 -51 8.5 -106.5t29 -101.5t57 -76t94.5 -30q57 0 176 41v520q-102 31 -172 31q-59 0 -97 -22.5t-59.5 -60.5 t-29 -89t-7.5 -106z" />
<glyph unicode="A" horiz-adv-x="1310" d="M0 31q0 18 17.5 27.5t41 18.5t45 21.5t29.5 34.5l393 1204q12 41 56 41h77q39 0 52 -37l397 -1212q12 -39 72 -49q59 -22 59 -49q0 -31 -39 -31h-317q-43 0 -43 31q0 14 17 24.5t36.5 19.5t37 18t17.5 22q0 10 -2 12l-72 235q-12 37 -49 37h-446q-51 0 -60 -37l-63 -233 q-2 -2 -2 -12q0 -2 -2 -4q0 -12 17.5 -20.5t37 -16.5t36.5 -18.5t17 -26.5q0 -31 -41 -31h-280q-39 0 -39 31zM375 518q0 -18 28 -18h400q18 0 18 16q-2 0 -2 4t-1 7t-1 10l-201 616q-8 20 -14 21q-8 0 -14 -21l-209 -616q-4 -20 -4 -19z" />
<glyph unicode="B" d="M41 31q0 18 18.5 28.5t41 18.5t41 19.5t18.5 31.5l2 1090q0 23 -18.5 36t-42 23t-42 21.5t-18.5 29.5q0 31 39 31h371q487 0 487 -361q0 -195 -143 -282q225 -74 225 -336q0 -381 -467 -381h-473q-39 0 -39 31zM317 139q0 -37 41 -37h195q307 1 307 271q0 268 -307 268 h-201q-35 0 -35 -35v-467zM317 784q0 -41 39 -41h129q137 0 205 66.5t68 189.5q0 250 -307 256l-97 2q-37 0 -37 -32v-441z" />
<glyph unicode="C" horiz-adv-x="1073" d="M41 680q0 352 145.5 521t440.5 169q178 0 334 -82v-178q0 -59 -29 -59q-33 0 -51 59l-21 59q-57 100 -215 101q-94 0 -174 -38t-139.5 -111.5t-93 -184.5t-33.5 -256t33.5 -256t93 -184.5t139.5 -111.5t174 -38q158 0 215 100l21 60q18 59 51 59q29 0 29 -59v-180 q-164 -80 -334 -80q-586 0 -586 690z" />
<glyph unicode="D" horiz-adv-x="1212" d="M41 31q0 18 18.5 28.5t41 18.5t41 19.5t18.5 31.5v1100q0 20 -18.5 32.5t-41 20.5t-41 18.5t-18.5 28.5q0 31 41 31h457q561 0 561 -680t-559 -680h-461q-39 0 -39 31zM319 141q0 -41 46 -41h176q186 0 287.5 144.5t101.5 435.5t-102.5 435.5t-288.5 144.5h-179 q-41 0 -41 -37v-1082z" />
<glyph unicode="E" d="M41 31q0 18 18.5 28.5t41 18.5t41 19.5t18.5 31.5l2 1100q0 23 -18.5 33t-42 17t-42 17.5t-18.5 32.5q0 31 39 31h899q41 0 41 -41v-139q0 -39 -31 -39q-18 0 -28.5 18.5t-19.5 41t-19.5 41t-28.5 18.5h-535q-39 0 -39 -37v-443q0 -41 43 -41h232q18 0 29.5 18.5t20.5 42 t19.5 42t28.5 18.5q31 0 31 -41v-254q0 -45 -31 -45q-18 0 -28.5 18.5t-19.5 42t-20.5 42t-29.5 18.5h-232q-43 0 -43 -45v-461q0 -35 35 -35h533q23 0 35 18.5t21 41t19.5 41t28.5 18.5q29 0 29 -39v-137q0 -43 -43 -43h-893q-43 0 -43 31z" />
<glyph unicode="F" horiz-adv-x="1091" d="M41 31q0 16 18.5 26.5t42 19.5t42 20.5t18.5 29.5v1108q0 18 -18.5 27.5t-42 18.5t-42 19.5t-18.5 28.5q0 31 39 31h909q31 0 31 -39v-141q0 -39 -29 -39q-18 0 -28.5 18.5t-19.5 41t-21.5 41t-32.5 18.5h-522q-47 0 -48 -39v-443q0 -39 46 -39h231q18 0 28.5 18.5 t19.5 42t19.5 42t28.5 18.5q31 0 31 -39v-264q0 -37 -31 -37q-18 0 -28.5 18.5t-19.5 42t-20.5 42t-29.5 18.5h-232q-43 0 -43 -41v-473q0 -18 18.5 -29.5t42 -20.5t42 -18.5t18.5 -27.5q0 -31 -41 -31h-315q-43 0 -43 31z" />
<glyph unicode="G" horiz-adv-x="1224" d="M41 680q0 688 563 688q68 0 122 -6t100 -17.5t86 -28t81 -36.5v-197q0 -43 -30 -43q-31 0 -50 60l-20 59q-27 49 -83 79t-177 30q-98 0 -179 -36t-139.5 -108.5t-91.5 -183.5t-33 -260q0 -147 33 -258t91.5 -184.5t139.5 -109.5t177 -36q106 0 157.5 29t51.5 80v272 q0 18 -18.5 28.5t-41 19.5t-41 19.5t-18.5 28.5q0 31 41 31h313q37 0 37 -31q0 -18 -18.5 -28.5t-41 -19.5t-41 -20.5t-18.5 -31.5v-389q-51 -20 -96 -36.5t-90 -28t-94 -17.5t-109 -6q-563 0 -563 688z" />
<glyph unicode="H" horiz-adv-x="1353" d="M41 31q0 18 18.5 28.5t42 18.5t42 18t18.5 31v1106q0 18 -18.5 29.5t-42 19.5t-42 18.5t-18.5 28.5q0 31 41 31h321q37 0 37 -31q0 -18 -18.5 -28.5t-42 -18.5t-42 -19.5t-18.5 -31.5v-449q0 -43 41 -43h568q33 0 33 37v461q0 16 -18.5 26.5t-42 18.5t-42 18.5 t-18.5 28.5q0 31 45 31h315q39 0 39 -31q0 -18 -18.5 -28.5t-41 -19.5t-41 -19.5t-18.5 -30.5v-1104q0 -39 62 -47q59 -18 59 -49t-45 -31h-313q-43 0 -43 31q0 18 18.5 27.5t42 18.5t42 19t18.5 29v481q0 35 -33 35h-568q-41 0 -41 -41v-473q0 -20 18.5 -30.5t42 -18.5 t42 -18t18.5 -29q0 -31 -37 -31h-319q-43 0 -43 31z" />
<glyph unicode="I" horiz-adv-x="555" d="M41 31q0 23 18.5 33t42 16t42 15t18.5 32v1110q0 16 -18.5 26.5t-42 18.5t-42 18.5t-18.5 28.5q0 31 43 31h315q41 0 41 -31t-59 -49q-61 -10 -62 -49v-1102q0 -23 19.5 -33t42 -17t42 -16t19.5 -32q-4 -31 -43 -31h-317q-41 0 -41 31z" />
<glyph unicode="J" horiz-adv-x="733" d="M41 90q0 41 27 41q37 0 68.5 -9t60.5 -9q143 0 143 127v989q0 43 -57 51q-61 18 -62 49q0 31 41 31h320q39 0 39 -31q0 -18 -18.5 -28.5t-42 -18.5t-42 -19.5t-18.5 -31.5v-950q0 -86 -14.5 -141.5t-44 -87.5t-74.5 -45t-105 -13q-33 0 -70.5 4t-71.5 14.5t-56.5 28.5 t-22.5 49z" />
<glyph unicode="K" horiz-adv-x="1212" d="M41 31q0 18 18.5 28.5t42 18.5t42 18t18.5 31v1108q0 18 -18.5 27.5t-42 18.5t-42 19.5t-18.5 28.5q0 31 39 31h321q39 0 39 -31q0 -18 -18.5 -28.5t-42 -18.5t-42 -19.5t-18.5 -29.5v-410q0 -20 9 -20q10 0 30 20l390 430q6 6 6 15q0 6 -11.5 11t-26 11t-25.5 15.5 t-11 23.5q0 31 43 31h258q41 0 41 -31q0 -18 -19.5 -28.5t-45 -19.5t-50 -18.5t-35.5 -23.5l-413 -457q-12 -16 -13 -28q0 -20 21 -41l524 -586q18 -23 45 -33t49.5 -18t39 -17.5t16.5 -27.5q0 -31 -41 -31h-160q-41 0 -76 29l-508 557q-18 23 -28 22q-8 0 -9 -18v-465 q0 -18 19.5 -28.5t42 -18.5t42 -18t19.5 -29q-4 -31 -41 -31h-319q-41 0 -41 31z" />
<glyph unicode="L" horiz-adv-x="1052" d="M41 31q0 18 18.5 28.5t42 18.5t42 18t18.5 31v1104q0 20 -18.5 31.5t-42 20.5t-42 19.5t-18.5 28.5q0 29 43 29h319q37 0 37 -29q0 -18 -18.5 -28.5t-42 -19.5t-42 -19.5t-18.5 -28.5v-1094q0 -39 41 -39h494q18 0 28.5 18.5t19.5 42t19.5 42t28.5 18.5q31 0 31 -35v-153 q0 -35 -41 -35h-858q-41 0 -41 31z" />
<glyph unicode="M" horiz-adv-x="1593" d="M41 31q0 18 18.5 28.5t42 18.5t42 18t18.5 31v1106q0 18 -18.5 29.5t-42 19.5t-42 18.5t-18.5 28.5q0 31 43 31h252q39 0 63 -64l359 -948q6 -16 12 -16t12 16l392 948q27 63 69 64h201q37 0 37 -31t-62 -49q-59 -10 -59 -51v-1098q0 -23 18.5 -34t42 -19t42 -18.5 t18.5 -28.5q0 -31 -43 -31h-314q-43 0 -43 31q0 18 18.5 28.5t41 18.5t41 19.5t18.5 31.5v952q0 14 -4 15q-6 0 -22 -41l-367 -910q-29 -65 -65 -65h-1q-43 0 -67 67l-367 947q-18 43 -22 43t-4 -19v-987q0 -23 18 -34t42 -19t42 -18.5t18 -28.5q0 -31 -41 -31h-278 q-41 0 -41 31z" />
<glyph unicode="N" horiz-adv-x="1271" d="M41 31q0 18 18.5 28.5t42 18.5t42 19.5t18.5 31.5v1090q0 23 -18.5 36t-42 23t-42 21.5t-18.5 29.5q0 31 41 31h201q41 0 61 -39l551 -1014q10 -23 18 -22q6 0 7 22v924q0 39 -60 49q-61 18 -61 49t43 31h274q43 0 43 -31q0 -18 -18.5 -28.5t-41 -18.5t-41 -19.5 t-18.5 -29.5v-1192q0 -41 -43 -41h-94q-43 0 -63 39l-533 997q-12 25 -20 25q-6 0 -6 -21v-911q0 -20 18 -31.5t42 -19.5t42 -18t18 -29q0 -31 -39 -31h-280q-41 0 -41 31z" />
<glyph unicode="O" horiz-adv-x="1253" d="M41 680q0 688 537 688h26q266 0 401.5 -172t135.5 -516t-135.5 -516t-401.5 -172h-26q-537 0 -537 688zM201 680q0 -276 107.5 -425t283.5 -163q174 14 281.5 163t107.5 425t-107.5 424.5t-281.5 163.5q-176 -14 -283.5 -163t-107.5 -425z" />
<glyph unicode="P" horiz-adv-x="1052" d="M41 31q0 23 18.5 33t42 16t42 16t18.5 33v1104q0 18 -18.5 29.5t-42 19.5t-42 18.5t-18.5 28.5q0 31 41 31h395q463 0 463 -365q0 -186 -116.5 -282.5t-352.5 -96.5h-111q-41 0 -41 -36v-451q0 -41 62 -49q59 -10 59 -49q0 -31 -39 -31h-319q-41 0 -41 31zM319 754 q0 -37 39 -37l115 2q154 4 230.5 67.5t76.5 200.5q0 135 -75.5 198.5t-231.5 69.5l-106 5h-8q-39 0 -40 -37v-469z" />
<glyph unicode="Q" horiz-adv-x="1253" d="M41 680q0 688 537 688h26q266 0 401.5 -172t135.5 -516q0 -135 -28 -245.5t-74 -192.5t-106.5 -134.5t-123.5 -70.5q-16 -6 -16 -14t10 -19q133 -84 282 -84q35 0 35 -39q0 -41 -35 -41q-123 0 -236.5 32t-217.5 101q-18 12 -29.5 16.5t-23.5 2.5q-537 0 -537 688z M201 680q0 -276 107.5 -425t283.5 -163q174 14 281.5 163t107.5 425t-107.5 424.5t-281.5 163.5q-176 -14 -283.5 -163t-107.5 -425z" />
<glyph unicode="R" d="M41 31q0 18 18.5 28.5t42 18.5t42 19.5t18.5 31.5v1104q0 18 -18.5 29.5t-42 19.5t-42 18.5t-18.5 28.5q0 31 41 31h418q205 0 322.5 -92t117.5 -273q0 -76 -29.5 -140t-76 -112.5t-100.5 -76t-103 -27.5q-20 -6 -21 -21q0 -14 8 -22l283 -475q10 -18 30.5 -28.5 t40 -18.5t34 -17.5t14.5 -25.5q0 -31 -43 -31h-121q-43 0 -63 39l-320 543q-22 34 -51 34h-2h-60q-41 0 -41 -36v-451q0 -41 62 -49q59 -18 59 -49t-39 -31h-319q-41 0 -41 31zM319 754q0 -37 39 -37l115 2q154 4 230.5 67.5t76.5 200.5q0 135 -75.5 198.5t-231.5 69.5 l-106 5h-8q-39 0 -40 -37v-469z" />
<glyph unicode="S" horiz-adv-x="950" d="M41 270v9q0 35 27 34q43 0 55 -41l27 -79q37 -37 103 -70t165 -33q135 0 198.5 70.5t63.5 199.5q0 70 -66.5 139.5t-222.5 135.5t-245 161t-89 224q0 84 30 149.5t82 109.5t122.5 67.5t152.5 23.5q72 0 150 -19.5t164 -62.5l18 -196q0 -23 -7 -33t-30 -10q-33 0 -45 41 l-26 79q-37 35 -90.5 65t-126.5 30q-119 0 -176.5 -62.5t-57.5 -161.5q0 -80 75 -154.5t230 -140.5q156 -66 236 -153.5t80 -210.5q0 -102 -31 -177t-86 -123t-130 -71.5t-161 -23.5q-78 0 -170 20.5t-203 67.5z" />
<glyph unicode="T" horiz-adv-x="1052" d="M0 1180v141q0 39 43 39h897q39 0 39 -39l2 -141q0 -39 -31 -39q-18 0 -28.5 18.5t-19.5 41t-20.5 41t-31.5 18.5h-229q-39 0 -39 -41v-1088q0 -43 61 -51q59 -23 59 -49q0 -31 -40 -31h-320q-39 0 -39 31q0 16 18.5 26.5t42 19.5t42 20.5t18.5 31.5v1090q0 41 -43 41 h-250q-20 0 -31.5 -18.5t-20.5 -41t-19.5 -41t-28.5 -18.5q-31 0 -31 39z" />
<glyph unicode="U" horiz-adv-x="1271" d="M41 1329q0 31 41 31h319q39 0 39 -31q0 -18 -18.5 -28.5t-42 -18.5t-42 -19.5t-18.5 -31.5v-791q0 -321 299 -321h13q156 4 223.5 87t67.5 232v793q0 18 -18.5 29.5t-41 20.5t-42 19.5t-21.5 26.5q0 33 41 33l280 -2q39 0 39 -31q0 -16 -18.5 -26.5t-41 -19.5t-41 -20.5 t-18.5 -29.5v-772q0 -115 -33.5 -201t-94 -143.5t-145.5 -86t-187 -28.5q-199 0 -308.5 119t-109.5 360v752q0 20 -18.5 31.5t-42 19.5t-42 18.5t-18.5 28.5z" />
<glyph unicode="V" horiz-adv-x="1261" d="M0 1329q0 31 41 31h344q39 0 39 -31q0 -18 -17.5 -28.5t-39 -17.5t-39 -15t-17.5 -23q0 -6 2 -8l305 -877q16 -41 23 -41q6 0 16 41l299 873q2 2 2 14q0 14 -15 22.5t-33.5 16.5t-34 17.5t-15.5 25.5q0 31 41 31h240q49 0 49 -31q0 -18 -17.5 -28.5t-39 -18.5t-42 -19.5 t-26.5 -33.5l-391 -1186q-16 -43 -53 -43t-60 41l-430 1190q-6 20 -27.5 30.5t-45 19.5t-41 19.5t-17.5 28.5z" />
<glyph unicode="W" horiz-adv-x="1820" d="M0 1329q0 31 41 31h342q39 0 39 -31q0 -16 -17.5 -26.5t-38 -18.5t-38 -16t-17.5 -23q0 -6 2 -8l232 -868q10 -41 18 -41t21 41l260 856q8 23 24.5 39t49.5 16q31 0 49 -14.5t22 -30.5l228 -870q10 -41 20 -41t23 41l253 870q2 2 3 14q0 14 -15.5 22.5t-34 15.5t-34 16.5 t-15.5 25.5q0 31 41 31h240q51 0 51 -31q0 -18 -17.5 -28.5t-40 -19.5t-43 -20.5t-26.5 -31.5l-348 -1186q-12 -43 -57 -43q-43 0 -56 45l-246 905q-12 41 -22 41t-23 -43l-278 -905q-12 -43 -53 -43t-60 43l-348 1188q-6 18 -26.5 29.5t-44 20.5t-42 19.5t-18.5 28.5z" />
<glyph unicode="X" horiz-adv-x="1314" d="M41 31q0 18 18.5 28.5t42 18.5t47 17t33.5 26l320 487q6 10 11 22.5t5 24.5t-6 25l-317 555q-8 14 -32 24.5t-48.5 20.5t-44 21.5t-19.5 27.5q0 31 41 31h350q39 0 39 -31q0 -29 -59 -45l-33 -8q-16 -6 -16 -14q0 -6 6 -19l237 -422q6 -14 17 -14q8 0 16 14l285 422 q6 8 6 17q0 10 -18 10l-29 10q-29 10 -46.5 19.5t-15.5 29.5q0 31 41 31h289q41 0 41 -31q0 -16 -18.5 -27.5t-42 -20.5t-47 -19.5t-33.5 -24.5l-336 -496q-16 -23 -16 -43q0 -12 8 -26l330 -547q10 -18 33.5 -27.5t48 -18.5t43 -19t18.5 -29q0 -31 -41 -31h-348 q-39 0 -39 31q0 27 59 49l29 10q18 0 18 10q0 -6 -4 15l-241 401q-12 20 -23 21q-6 0 -12 -11l-271 -411q-6 -10 -6 -15q0 -10 21 -10l28 -10q31 -10 46.5 -21.5t15.5 -27.5q0 -31 -41 -31h-299q-41 0 -41 31z" />
<glyph unicode="Y" horiz-adv-x="1171" d="M0 1329q0 31 41 31h338q41 0 41 -31q0 -14 -16.5 -21.5t-45.5 -17.5l-28 -10q-14 -2 -15 -18q0 -10 7 -23l245 -444q10 -16 19 -17q6 0 16 17l238 444q6 12 6 21q0 12 -17 12l-30 8q-31 8 -45.5 22.5t-14.5 26.5q0 31 41 31h279q41 0 41 -31q0 -18 -18.5 -28.5t-43 -18.5 t-48 -18.5t-34.5 -30.5l-297 -559q-21 -38 -21 -60q0 -4 1 -8v-475q0 -20 18.5 -31.5t42 -20.5t42 -19.5t18.5 -28.5q0 -31 -41 -31h-320q-39 0 -39 31q0 18 18.5 28.5t41 19.5t41 20.5t18.5 29.5v479q0 29 -20 68l-318 557q-10 18 -33.5 28.5t-47 19.5t-42 19.5t-18.5 28.5 z" />
<glyph unicode="Z" horiz-adv-x="1085" d="M41 41v39q0 20 10 38.5t21 35.5l678 1083q2 2 2 8q0 8 -13 8h-495q-31 0 -47.5 -18t-26.5 -41t-19.5 -41t-27.5 -18q-31 0 -31 59v127q0 39 41 39h768q41 0 41 -39v-41q0 -23 -10 -41t-21 -35l-678 -1083q-2 -10 -3 -12.5t-1 2.5q0 -6 15 -7h575q31 0 47.5 18.5t26.5 41 t19.5 41t29.5 18.5q10 0 19.5 -15t9.5 -44l2 -123q0 -41 -41 -41h-850q-41 0 -41 41z" />
<glyph unicode="[" horiz-adv-x="395" d="M41 0v1481h242v-121h-121v-1239h121v-121h-242z" />
<glyph unicode="\" horiz-adv-x="712" d="M41 1481h121l438 -1481h-119z" />
<glyph unicode="]" horiz-adv-x="395" d="M41 0v121h121v1239h-121v121h242v-1481h-242z" />
<glyph unicode="^" horiz-adv-x="559" d="M41 1108l162 250h82l161 -250h-38l-164 152l-164 -152h-39z" />
<glyph unicode="_" horiz-adv-x="1153" d="M41 0v82h999v-82h-999z" />
<glyph unicode="`" horiz-adv-x="509" d="M41 1327q0 25 15.5 40t41.5 15q16 0 30.5 -8t43.5 -37l225 -231h-53l-256 158q-47 29 -47 63z" />
<glyph unicode="a" horiz-adv-x="950" d="M41 272q0 84 35 144.5t99.5 98.5t153.5 56.5t197 18.5h33q39 0 39 41v71q0 111 -51 169.5t-150 58.5q-61 0 -118.5 -7.5t-110.5 -23.5q-41 4 -41 31q0 29 41 47q76 39 229 39q186 0 273.5 -86t87.5 -246v-547q0 -27 15 -39t34.5 -20t35 -16.5t15.5 -26.5q-4 -35 -61 -35 q-119 0 -181 70q-137 -70 -274 -70q-147 0 -224 75t-77 197zM190 279q0 -35 10.5 -69t35 -60.5t64.5 -43t99 -16.5q88 0 158 21q41 10 41 49v321q0 39 -39 39q-203 -8 -286 -68.5t-83 -172.5z" />
<glyph unicode="b" horiz-adv-x="1067" d="M41 1391q0 14 18.5 27.5t44 22.5t52 14t45.5 5h59q61 0 62 -39v-440q0 -27 16 -27q8 0 22 9q88 45 187 45q90 0 164.5 -37t129 -101.5t84 -149.5t29.5 -183q0 -104 -29.5 -200.5t-88 -171.5t-146.5 -120t-207 -45q-137 0 -323 80l2 1241q0 23 -18.5 29t-42 9t-42 8 t-18.5 24zM319 168q0 -25 19.5 -38t46.5 -19.5t53.5 -7.5t42.5 -1q63 0 122 28t102 82t68.5 135.5t25.5 187.5q0 166 -72 264t-203 98q-18 0 -53 -3t-68.5 -12.5t-58.5 -25.5t-25 -41v-647z" />
<glyph unicode="c" horiz-adv-x="894" d="M41 485q0 104 31.5 199.5t90 168.5t143.5 115t194 42q88 0 241 -41v-160q0 -43 -39 -43q-20 0 -33.5 18.5t-26.5 43t-26.5 48t-33.5 33.5q-25 12 -49.5 16.5t-47.5 4.5q-57 0 -108 -33t-90 -92.5t-61.5 -140t-22.5 -179.5q0 -90 25.5 -163.5t71.5 -127t109.5 -82 t141.5 -28.5q82 0 190 37q41 0 41 -27q0 -23 -28.5 -41t-69.5 -31.5t-87 -20.5t-79 -7q-111 0 -199 36t-150.5 101.5t-95 155.5t-32.5 198z" />
<glyph unicode="d" horiz-adv-x="1028" d="M41 438q0 92 24.5 193.5t77 187.5t135 141.5t199.5 55.5q35 0 74 -6t84 -17q2 0 4 -1t4 -1q27 0 27 33v297q0 20 -17.5 27.5t-38 10.5t-39 8t-20.5 24q2 14 21.5 27.5t44 22.5t51 14t43.5 5h82q39 0 39 -41v-1280q0 -29 14 -42t32.5 -20t35 -15.5t18.5 -26.5 q0 -35 -59 -35q-123 0 -181 80q-78 -41 -146.5 -63.5t-133.5 -22.5q-102 0 -173 46t-116 113.5t-65.5 145.5t-20.5 139zM219 469q0 -180 71.5 -275.5t182.5 -95.5q18 0 53 3t69 12.5t59.5 26t25.5 40.5v664q0 31 -33 45q-66 33 -139 33q-59 0 -111.5 -32t-92.5 -91.5 t-62.5 -143.5t-22.5 -186z" />
<glyph unicode="e" horiz-adv-x="942" d="M41 510q0 109 31.5 202t88 161.5t135.5 107.5t173 39q180 0 270 -131t90 -373q0 -31 -32 -31h-584q0 -86 19.5 -158.5t57.5 -124.5t92 -82t122 -30q94 0 217 51q41 0 41 -26q0 -25 -34 -46.5t-80 -37t-93 -24.5t-72 -9q-98 0 -180 38t-140.5 106.5t-90 162.5t-31.5 205z M221 606q0 -41 39 -41h389q39 0 39 34v7q-10 172 -64.5 248t-174.5 76q-109 0 -160 -87t-68 -237z" />
<glyph unicode="f" horiz-adv-x="612" d="M41 31q0 18 18.5 28.5t42 18.5t42 19.5t18.5 31.5v733q0 37 -41 37h-39q-41 0 -41 51q0 49 41 49h59q20 0 21 21q0 180 93 260t286 80q41 0 41 -41q0 -39 -41 -39q-111 0 -165 -59.5t-54 -200.5q0 -20 18 -21h100q41 0 41 -49q0 -51 -39 -51h-102q-18 0 -18 -20v-750 q0 -20 18 -31.5t40.5 -19.5t41 -18.5t18.5 -28.5q0 -31 -39 -31h-319q-41 0 -41 31z" />
<glyph unicode="g" horiz-adv-x="1024" d="M41 -201q0 61 27.5 103.5t83.5 74.5q43 23 57 21q20 0 32.5 -11.5t12.5 -21.5t-13.5 -21.5t-28.5 -28.5t-27.5 -38.5t-12.5 -50.5q0 -47 41 -77t106 -30h291q182 0 183 119q0 78 -59.5 120t-164.5 42h-159q-141 0 -211 51t-70 162t82 156q-82 43 -122 120.5t-40 176.5 q0 166 104.5 258t309.5 92q39 0 75.5 -5t73.5 -20l35 -12l203 35q39 0 39 -41q0 -39 -39 -39l-84 -29q45 -45 63.5 -109.5t18.5 -125.5q0 -160 -96.5 -256.5t-298.5 -96.5q-31 0 -65 4.5t-73 12.5l-22 -19q-20 -16 -30.5 -28.5t-10.5 -34.5q0 -47 42 -69.5t116 -22.5h159 q342 -1 342 -314q0 -245 -299 -245h-2h-329q-41 0 -83 8t-77 30.5t-57.5 60.5t-22.5 99zM211 666q0 -47 8 -93.5t34 -83t72 -60t124 -23.5q74 0 119.5 23.5t72.5 61t36 86t9 97.5t-11 94t-38 80t-74 55.5t-117 20.5q-47 0 -104 -23q-43 -18 -69.5 -41.5t-40 -52.5 t-17.5 -63.5t-4 -77.5z" />
<glyph unicode="h" d="M41 31q0 18 18.5 28.5t42 18.5t42 19.5t18.5 31.5v1192q0 23 -18.5 29t-42 9t-42 8t-18.5 24q0 14 18.5 27.5t44 22.5t52 14t45.5 5h80q41 0 41 -41v-506q141 98 278 99q160 0 241 -89t81 -249l-2 -543q0 -20 18 -31.5t42 -20.5t42 -19t18 -29q0 -31 -41 -31h-319 q-41 0 -41 31q0 18 19.5 28.5t42 19.5t42 20.5t19.5 29.5v545q0 43 -15.5 83t-44 70.5t-70.5 49t-95 18.5q-92 0 -215 -61v-705q0 -20 18 -31.5t40.5 -19.5t41 -18t18.5 -29q0 -31 -39 -31h-319q-41 0 -41 31z" />
<glyph unicode="i" horiz-adv-x="532" d="M41 31q0 23 18.5 36t42 24t42 23.5t18.5 35.5v710q0 23 -18.5 30t-42 10t-42 7t-18.5 23q0 14 17.5 27.5t43 22.5t53 14t48.5 5h78q41 0 41 -38v-809q0 -23 18 -36.5t40.5 -25.5t41 -25.5t18.5 -33.5q0 -31 -39 -31h-319q-41 0 -41 31zM141 1200q0 80 90 80q91 0 91 -82 q0 -78 -91 -78q-88 0 -90 80z" />
<glyph unicode="j" horiz-adv-x="438" d="M-143 -319q0 38 39 38h2q45 -14 116 -14q152 0 152 135v1020q0 20 -17.5 27.5t-39 10.5t-41 8t-21.5 24q0 16 18.5 29.5t44 22.5t53 13t44.5 4h80q39 0 39 -38v-1082q0 -135 -56.5 -210t-169.5 -75q-59 0 -105 11.5t-77 26t-46 28.5t-15 21zM147 1200q0 41 20.5 60.5 t70.5 19.5q88 0 88 -80t-88 -80q-90 0 -91 80z" />
<glyph unicode="k" horiz-adv-x="1052" d="M41 31q0 18 18.5 28.5t42 18.5t42 19.5t18.5 31.5v1192q0 23 -18.5 29t-42 9t-42 8t-18.5 24q0 14 18.5 27.5t44 22.5t52 14t45.5 5h80q41 0 41 -41v-780q0 -25 8 -25t20 17l211 229q14 14 14 29q0 10 -14 19.5t-32.5 18.5t-33 20t-14.5 24q0 29 39 27h281q41 0 41 -27 q0 -18 -17.5 -30.5t-42 -24t-52.5 -23.5t-48 -33l-246 -264q-20 -20 -20 -39q0 -12 12 -25l395 -405q10 -10 33 -20.5t46.5 -20.5t41 -21.5t17.5 -23.5q0 -41 -39 -41h-121q-39 0 -70 31l-385 383q-10 10 -16 10q-8 0 -8 -25v-270q0 -20 18 -31.5t40.5 -19.5t41 -18 t18.5 -29q0 -31 -39 -31h-319q-41 0 -41 31z" />
<glyph unicode="l" horiz-adv-x="532" d="M41 31q0 18 18.5 28.5t42 18.5t42 19.5t18.5 31.5v1192q0 23 -18.5 29t-42 9t-42 8t-18.5 24q0 14 18.5 27.5t44 22.5t52 14t45.5 5h80q41 0 41 -41v-1290q0 -20 18 -31.5t40.5 -19.5t41 -18t18.5 -29q0 -31 -39 -31h-319q-41 0 -41 31z" />
<glyph unicode="m" horiz-adv-x="1671" d="M41 31q0 18 18.5 28.5t42 19.5t42 20.5t18.5 29.5v731q0 23 -18.5 30t-42 10t-42 7t-18.5 23q0 14 17.5 27.5t43 22.5t53 14t48.5 5h78q41 0 41 -38v-74q72 61 143.5 96t142.5 35q76 0 137.5 -35t94.5 -88q170 127 315 127q150 0 227.5 -93t77.5 -249l-2 -551 q0 -20 18.5 -31.5t42 -19.5t42 -18t18.5 -29q0 -31 -41 -31h-319q-39 0 -39 31q0 18 18.5 28.5t42 18.5t41.5 19.5t18 31.5v551q0 41 -13 81t-39.5 72.5t-63.5 52t-86 19.5q-98 0 -224 -94q10 -29 13.5 -61.5t3.5 -69.5v-549q0 -20 18.5 -31.5t41 -20.5t41 -19t18.5 -29 q0 -31 -39 -31h-322q-39 0 -39 31q0 18 18.5 28.5t42 19.5t42 20.5t18.5 29.5v551q0 37 -12 76t-36 71.5t-58.5 53t-77.5 20.5q-47 0 -103.5 -26.5t-121.5 -71.5v-672q0 -20 18 -31.5t40.5 -20.5t41 -19t18.5 -29q0 -31 -39 -31h-319q-41 0 -41 31z" />
<glyph unicode="n" d="M41 31q0 18 18.5 28.5t42 19.5t42 20.5t18.5 29.5v731q0 23 -18.5 30t-42 10t-42 7t-18.5 23q0 14 17.5 27.5t43 22.5t53 14t48.5 5h78q41 0 41 -38v-101q86 72 164.5 113t156.5 41q137 0 208 -93.5t71 -240.5l-2 -549q0 -20 18 -31.5t42 -20.5t42 -19t18 -29 q0 -31 -41 -31h-319q-41 0 -41 31q0 18 19.5 28.5t42 19.5t42 20.5t19.5 29.5v551q0 37 -11.5 76t-34 69.5t-56 50t-76.5 19.5q-53 0 -118 -30.5t-144 -84.5v-649q0 -20 18 -31.5t40.5 -20.5t41 -19t18.5 -29q0 -31 -39 -31h-319q-41 0 -41 31z" />
<glyph unicode="o" horiz-adv-x="1013" d="M41 487q0 180 68.5 310.5t191.5 179.5q88 35 170 35q92 0 171 -36t136.5 -103.5t90 -165t32.5 -220.5q0 -111 -30.5 -202.5t-86 -158.5t-135.5 -103.5t-178 -36.5q-96 0 -175 35.5t-136.5 102t-88 159t-30.5 204.5zM207 487q0 -82 14.5 -152.5t47 -123.5t81.5 -84 t121 -31q63 0 113.5 28t84 79t51 120.5t17.5 155.5q0 94 -15 173t-48 136.5t-82 89t-119 31.5q-59 0 -111 -26q-82 -41 -118.5 -146.5t-36.5 -249.5z" />
<glyph unicode="p" horiz-adv-x="1069" d="M41 -371q0 18 18.5 28.5t42 20t42 20.5t18.5 32v1128q0 23 -18.5 29t-42 9t-42 8t-18.5 26q0 14 18.5 27.5t43 22.5t52 14t46.5 5h80q41 0 41 -38v-31q72 41 136 63.5t126 22.5q86 0 155.5 -40t117.5 -107.5t73.5 -157t25.5 -189.5q0 -109 -29.5 -205t-81.5 -167.5 t-125 -112.5t-161 -41q-53 0 -111.5 21.5t-125.5 74.5v-362q0 -20 18 -31.5t40.5 -21t41 -19.5t18.5 -29q0 -30 -37 -30h-2h-319q-41 0 -41 30zM322 188q66 -49 118 -69.5t95 -20.5q66 0 116.5 34t85.5 93.5t53.5 139.5t18.5 170q0 76 -18.5 144.5t-51 120.5t-81 82.5 t-105.5 30.5q-47 0 -105.5 -17t-125.5 -46v-662z" />
<glyph unicode="q" horiz-adv-x="1030" d="M41 469q0 98 34 196.5t97.5 177.5t153.5 128t202 49q135 0 310 -100v-1190q0 -18 18 -29.5t42 -21t42 -21t18 -29.5q0 -30 -36 -30h-2h-302q-39 0 -38 30q0 18 17 28.5t38.5 20t39 20.5t17.5 32v336l-4 12q-102 -74 -235 -74q-90 0 -166 38t-130.5 101.5t-85 148.5 t-30.5 177zM199 463q0 -82 23.5 -149.5t63.5 -114.5t95 -74t117 -27q20 0 53 5.5t64.5 16.5t54 27.5t22.5 40.5v656q0 25 -22.5 39t-51 23t-57.5 12.5t-43 3.5q-59 0 -116.5 -34t-102.5 -95.5t-72.5 -145.5t-27.5 -184z" />
<glyph unicode="r" horiz-adv-x="794" d="M41 31q0 18 18.5 28.5t42 19.5t42 20.5t18.5 29.5v731q0 23 -18.5 30t-42 10t-42 7t-18.5 23q0 14 17.5 27.5t43 22.5t53 14t48.5 5h78q41 0 41 -38v-101q57 72 120.5 111t135.5 39q43 0 122 -29l21 -201q0 -4 1 -6t1 -4q0 -16 -9 -22.5t-22 -6.5q-16 -2 -23 15.5 t-26 44.5l-43 59q-39 33 -84 33t-93 -29.5t-101 -83.5v-649q0 -20 18 -31.5t40.5 -20.5t41 -19.5t18.5 -28.5q0 -31 -39 -31h-319q-41 0 -41 31z" />
<glyph unicode="s" horiz-adv-x="862" d="M41 279q0 32 46 32h3q29 0 39 -30l31 -91q20 -45 68 -75.5t128 -30.5q123 0 180.5 57.5t57.5 143.5q0 104 -260 198q-258 94 -258 289q0 117 87 181.5t247 64.5q61 0 126.5 -13.5t131.5 -43.5l39 -209q0 -31 -39 -31t-50 29l-30 90q-29 45 -65 73.5t-97 28.5 q-98 0 -146.5 -43t-48.5 -113q0 -121 261 -215q135 -49 196.5 -121.5t61.5 -170.5q0 -141 -90.5 -211t-264.5 -70q-72 0 -150.5 16.5t-164.5 55.5z" />
<glyph unicode="t" horiz-adv-x="712" d="M41 950q0 25 10 39.5t31 11.5l39 -2h7q34 0 34 39v162q0 18 3 45t13 52.5t29.5 44t52.5 18.5h21q41 0 41 -39v-301q0 -20 18 -21l162 2q39 0 39 -51q0 -49 -39 -49h-162q-20 0 -21 -20v-562q0 -135 42 -181t126 -46q59 0 113 29q4 0 6 1t6 1q29 0 29 -35q0 -25 -25.5 -42 t-60.5 -28.5t-72 -17.5t-57 -6q-127 0 -196.5 76.5t-69.5 248.5v562q0 16 -19 20l-59 -2q-41 0 -41 51z" />
<glyph unicode="u" d="M41 930q0 14 17.5 27.5t44 22.5t58.5 14t60 5h60q41 0 41 -38v-621q0 -41 12 -82t36.5 -72.5t60.5 -51t83 -19.5q100 0 248 104v641q0 23 -18.5 29t-42 8t-42 7t-18.5 26q0 29 58.5 49t181.5 20q39 0 39 -38v-832q0 -23 18 -30t42 -10t42 -7.5t18 -20.5t-18 -29.5 t-45 -22.5t-53.5 -14t-42.5 -5l-70 2q-49 0 -49 49v98q-160 -141 -307 -141q-143 0 -218 93t-75 249v520q0 23 -18.5 29t-42 8t-42 7t-18.5 26z" />
<glyph unicode="v" horiz-adv-x="1001" d="M0 971q4 29 41 29h319q39 0 39 -29q0 -16 -17 -26.5t-36.5 -18.5t-37 -18.5t-17.5 -24.5q0 4 1 0t3 -15l211 -585q6 -23 14 -23t15 23l192 585q2 2 2 13q0 14 -17.5 24t-37 19.5t-36.5 19.5t-17 27q18 29 38 29l263 1h2q37 0 37 -30q0 -18 -18.5 -28.5t-42 -22 t-47.5 -25.5t-32 -41l-301 -854h-59l-322 854q-10 27 -32.5 42t-46 25.5t-42 20.5t-18.5 29z" />
<glyph unicode="w" horiz-adv-x="1480" d="M0 971q4 28 39 28h2h319q39 0 39 -28q0 -16 -16 -26.5t-36.5 -18.5t-37 -18.5t-16.5 -24.5q0 -12 2 -15l172 -546q6 -23 14 -23q10 0 17 23l211 632q14 45 53 45q35 0 51 -47l209 -630q6 -23 14 -23q6 0 17 23l151 544q2 2 2 15q0 14 -16 24t-36.5 19.5t-37 19.5 t-16.5 27q0 28 36 28h3h262h3q36 0 36 -28q0 -18 -18.5 -28.5t-43 -22t-47 -25.5t-31.5 -41l-264 -854h-59l-221 682q-8 20 -17 20q-8 0 -14 -20l-246 -682h-57l-283 854q-8 27 -30.5 42t-47 25.5t-43 20.5t-18.5 29z" />
<glyph unicode="x" horiz-adv-x="1114" d="M41 29q0 18 17.5 28.5t41 19.5t48 19t36.5 29l252 367l-221 378q-16 18 -42 28.5t-50.5 20t-43 20.5t-18.5 32q0 29 39 27h342q39 0 39 -27q0 -16 -17.5 -26.5t-36.5 -20t-36.5 -16.5t-17.5 -15q0 4 1 2t3 -12l153 -262l175 262q2 2 2 10t-16.5 15t-37 15.5t-37 18.5 t-16.5 27q0 32 39 32h2h281q37 0 41 -30q-2 -18 -20.5 -29.5t-43.5 -21t-47.5 -20.5t-34.5 -28l-231 -344l264 -401q16 -18 42 -28.5t50.5 -19.5t41.5 -19.5t17 -28.5q0 -31 -38 -31h-363q-39 0 -41 31q2 27 62 49l28 10q25 0 25 23q0 -4 -1 0t-3 14l-170 279l-21 -29 q-14 -18 -35.5 -49t-46 -67t-51.5 -75t-49 -71q-6 -10 -6 -15q0 -10 20 -10l31 -10q59 -18 59 -49t-41 -31h-278q-41 0 -41 29z" />
<glyph unicode="y" horiz-adv-x="1042" d="M0 971q4 29 41 28h330q39 0 39 -28q0 -12 -17.5 -19.5t-37 -15.5t-37 -18.5t-17.5 -24.5q0 4 1 0t3 -14l195 -584q6 -23 14 -23q10 0 16 23l197 584q2 2 2 12q0 16 -17.5 26.5t-37 18.5t-36.5 15t-17 20q0 29 38 28l273 2h2q37 0 37 -30q0 -12 -18.5 -20.5t-42 -18.5 t-47 -25.5t-32.5 -42.5l-382 -1095q-33 -94 -85.5 -131t-115.5 -39q-29 0 -65 9t-66.5 24.5t-51 37t-20.5 45.5q0 33 37 33q18 0 33.5 -8t32 -17.5t37 -17.5t53.5 -8q37 0 69.5 24.5t50.5 77.5l74 211l-293 854q-10 27 -32.5 42.5t-46 24.5t-42 17t-18.5 23z" />
<glyph unicode="z" horiz-adv-x="872" d="M41 41q0 20 5 34.5t15 30.5l500 789q0 4 1 5t1 3t2 4q0 12 -26 13h-336q-23 0 -37 -18.5t-25.5 -41t-25 -41t-33.5 -18.5q-41 0 -41 39l41 159h639q39 0 39 -41q0 -33 -21 -65l-499 -766q-4 -20 -4 -14q0 -12 26 -13h338q20 0 33.5 18.5t26 41t25.5 41t36 18.5 q39 0 39 -39l-39 -180h-639q-41 0 -41 41z" />
<glyph unicode="{" horiz-adv-x="694" d="M41 739q0 8 20 21q160 80 160 459q0 381 322 380q39 0 39 -28q0 -31 -39 -31q-168 -14 -168 -270q0 -51 7 -113.5t7 -112.5q0 -250 -168 -294q-16 -6 -16 -11q0 -4 16 -10q168 -43 168 -295q0 -49 -7 -111.5t-7 -113.5q0 -254 168 -268q39 0 39 -31t-39 -31 q-322 0 -322 381q0 377 -160 461q-20 8 -20 18z" />
<glyph unicode="|" horiz-adv-x="274" d="M41 0v1481h121v-1481h-121z" />
<glyph unicode="}" horiz-adv-x="694" d="M41 -90q0 31 41 31q166 14 166 268q0 49 -6 110.5t-6 110.5q0 256 165 299q16 6 17 10q0 4 -17 11q-166 45 -165 299q0 49 6 110.5t6 110.5q0 254 -166 270q-41 0 -41 31q0 29 41 28q319 0 319 -380q0 -379 160 -459q21 -13 21 -21q0 -10 -21 -18q-160 -80 -160 -461 t-319 -381q-41 0 -41 31z" />
<glyph unicode="~" horiz-adv-x="983" d="M41 555v158q66 72 124 98.5t114 26.5q25 0 73.5 -15.5t103 -35t103.5 -35t74 -15.5q47 0 105.5 28t131.5 114v-156q-63 -72 -121.5 -98.5t-115.5 -26.5q-25 0 -74 15.5t-104.5 34t-104.5 33.5t-71 15q-49 0 -104.5 -25.5t-133.5 -115.5z" />
<glyph unicode="&#xa0;" />
<glyph unicode="&#xa1;" horiz-adv-x="333" d="M41 1284q0 80 90 80t90 -80q0 -37 -22.5 -58.5t-67.5 -21.5q-90 0 -90 80zM43 74v10l39 999q4 41 49 41t49 -41l41 -999q2 -80 -90 -80q-88 0 -88 70z" />
<glyph unicode="&#xa2;" horiz-adv-x="894" d="M41 485q0 78 18.5 152t52 136.5t83 112.5t110.5 81q29 14 61.5 24t67.5 15v84q0 41 39 40q41 0 41 -40v-80q45 -2 101.5 -11.5t125.5 -29.5v-160q0 -43 -39 -43q-20 0 -33.5 18.5t-26.5 43t-26.5 48t-33.5 33.5q-35 14 -68 19v-844h37q82 0 190 37q41 0 41 -27 q0 -23 -28.5 -41t-69.5 -31.5t-87 -20.5t-79 -7h-4v-60q0 -39 -41 -38q-39 0 -39 41v63q-31 4 -59.5 11t-55.5 18q-135 55 -206.5 172.5t-71.5 283.5zM203 485q0 -135 54 -233t153 -139l24 -11v820q-16 -4 -29.5 -9.5t-27.5 -15.5q-76 -47 -125 -155.5t-49 -256.5z" />
<glyph unicode="&#xa3;" horiz-adv-x="954" d="M41 41v78q2 20 14.5 42.5t27.5 47t31.5 52.5t26.5 63q8 27 13.5 82t5.5 114v23h-78q-41 0 -41 41q0 39 41 39h80v63h-80q-41 0 -41 41q0 39 41 39h80v33q0 160 28.5 266t82 172t126 93.5t162.5 27.5q23 0 57.5 -3t66.5 -12.5t55.5 -23.5t23.5 -39q0 -41 -41 -41 q-35 6 -66.5 8t-60.5 2q-88 0 -141.5 -29.5t-81 -83t-36.5 -129t-9 -169.5v-39l-2 -33h315q41 0 41 -39q0 -41 -41 -41h-317l-2 -63h319q41 0 41 -39q0 -41 -41 -41h-319q-2 -125 -19 -199q-8 -45 -18.5 -79t-22.5 -60q-20 -39 -20 -62t41 -22h399q20 0 31.5 24.5t23 55 t25.5 55.5t41 25q39 0 39 -41v-199q0 -41 -39 -41h-721q-41 0 -41 41z" />
<glyph unicode="&#xa4;" horiz-adv-x="921" d="M41 414l119 116q-29 39 -45.5 88.5t-16.5 98.5q0 53 17.5 102t44.5 84l-119 119l80 80l119 -119q31 27 85 44t101 17t96 -16t90 -45l117 119l80 -80l-117 -119q31 -41 46.5 -90t15.5 -96t-16.5 -96.5t-45.5 -90.5l117 -116l-80 -82l-117 119q-37 -27 -86 -44.5 t-100 -17.5q-47 0 -98.5 16.5t-87.5 45.5l-119 -119zM203 717q0 -43 18.5 -86t46.5 -72q31 -29 71 -46t87 -17q45 0 86 17t71.5 48t48 71t17.5 85t-17.5 85t-48 70.5t-71.5 48t-86 17.5q-47 0 -87 -17.5t-70.5 -47t-48 -70.5t-17.5 -86z" />
<glyph unicode="&#xa5;" horiz-adv-x="1253" d="M41 1329q0 31 41 31h338q41 0 41 -31q0 -14 -16.5 -21.5t-45.5 -17.5l-28 -10q-14 -2 -15 -18q0 -10 6 -23l246 -444q10 -16 19 -17q6 0 16 17l238 444q6 12 6 21q0 12 -17 12l-30 8q-31 8 -45.5 22.5t-14.5 26.5q0 31 41 31h279q41 0 41 -31q0 -18 -18.5 -28.5 t-43 -18.5t-48 -18.5t-34.5 -30.5l-249 -467h139q41 0 41 -39q0 -41 -41 -41h-180l-7 -12q-8 -14 -13 -27.5t-7 -23.5h207q41 0 41 -39q0 -41 -41 -41h-207v-412q0 -20 18.5 -31.5t42 -20.5t42 -19.5t18.5 -28.5q0 -31 -41 -31h-320q-39 0 -39 31q0 18 18.5 28.5t41 19.5 t41 20.5t18.5 29.5v414h-192q-41 0 -41 41q2 39 41 39h190q-2 10 -5 23t-13 30l-6 10h-166q-41 0 -41 41q2 39 41 39h121l-267 467q-10 18 -33.5 28.5t-47 19.5t-42 19.5t-18.5 28.5z" />
<glyph unicode="&#xa6;" horiz-adv-x="274" d="M41 0v631h121v-631h-121zM41 850v631h121v-631h-121z" />
<glyph unicode="&#xa7;" horiz-adv-x="827" d="M41 1130q0 70 22.5 129.5t63.5 102.5t101.5 67.5t133.5 24.5h5q29 0 72.5 -5t85.5 -12t72 -17.5t30 -22.5v-195h-52q-4 43 -26.5 77t-56 57.5t-72.5 35.5t-74 12h-14q-80 0 -126 -44t-46 -117q0 -133 286 -269q80 -37 130.5 -74.5t80 -77.5t40 -84t10.5 -95 q0 -117 -48.5 -207t-152.5 -140q117 -59 163 -129t46 -176q0 -96 -31 -167.5t-83 -121t-119.5 -74t-143.5 -24.5h-16q-31 0 -75 4t-85 12.5t-71 18.5t-30 23v194h52q2 -39 22.5 -71.5t51 -56t70.5 -38t81 -16.5q117 6 186.5 70.5t69.5 162.5q0 121 -315 277 q-123 59 -176.5 134t-53.5 179q0 131 70.5 216t189.5 104l-41 18q-119 53 -173 128t-54 187zM168 571q0 -125 248 -249q78 23 124 82t46 137l-2 10l-4 27q-10 25 -31 51t-51.5 49.5t-70.5 39t-87 15.5q-78 0 -125 -45t-47 -117z" />
<glyph unicode="&#xa8;" horiz-adv-x="514" d="M41 1202q0 63 72 64q71 -1 71 -64t-71 -63q-72 0 -72 63zM258 1202q0 63 72 64q71 -1 71 -64t-71 -63q-72 0 -72 63z" />
<glyph unicode="&#xa9;" horiz-adv-x="1640" d="M41 719q0 145 56.5 279.5t156.5 237.5t236.5 164.5t295.5 61.5q143 0 277.5 -55t238 -154.5t165 -235.5t61.5 -298q0 -147 -57.5 -281.5t-159 -238t-237.5 -164t-294 -60.5q-152 0 -286 59.5t-235 162t-159.5 236.5t-58.5 286zM113 719q0 -141 55 -264t147.5 -214 t213 -142.5t251.5 -51.5q139 0 262 53.5t214.5 145.5t144.5 214t53 259q0 150 -57.5 273.5t-151.5 211.5t-214 137.5t-245 49.5q-135 0 -251.5 -45.5t-227.5 -151.5q-86 -80 -140 -206t-54 -269zM365 717q0 258 109.5 381t320.5 123q129 0 243 -60v-131q0 -43 -20 -43 q-8 0 -18.5 10.5t-18.5 32.5l-14 43q-25 37 -67 58.5t-109 17.5q-135 -8 -219.5 -117.5t-84.5 -314.5q0 -209 88.5 -320.5t223.5 -111.5q66 0 105.5 18.5t62.5 54.5l14 43q14 45 37 45q20 0 20 -45v-131q-113 -57 -243 -57q-211 0 -320.5 122t-109.5 382z" />
<glyph unicode="&#xaa;" horiz-adv-x="714" d="M41 1225q0 57 25.5 98t69.5 67.5t104.5 38t132.5 11.5h22q14 0 15 18v45q0 135 -123 135q-88 0 -152 -20q-16 2 -26.5 8t-10.5 23q0 14 9.5 22t23.5 17q51 27 156 26q129 0 189.5 -58.5t60.5 -164.5v-350q0 -14 7 -20.5t19 -10.5l12 -4q27 -8 27 -33q-6 -33 -49 -33 q-80 0 -123 43q-96 -43 -180 -43q-104 0 -156.5 52.5t-52.5 132.5zM162 1229q0 -41 25.5 -75t101.5 -34q25 0 49 3t53 7q18 8 19 23v207q0 16 -15 16q-133 -6 -183 -43t-50 -104z" />
<glyph unicode="&#xab;" horiz-adv-x="1206" d="M41 563q0 10 10 21l443 516q14 18 51 18l102 2q19 0 19 -14q0 -8 -7 -21l-368 -501q-8 -8 -8 -25q0 -14 8 -22l364 -500q8 -14 9 -25q0 -12 -17 -12h-102q-29 0 -62 20l-430 521q-12 12 -12 22zM471 563q0 12 8 21l445 516q14 18 49 18l102 2q19 0 19 -14q0 -8 -7 -21 l-370 -501q-4 -20 -4 -21q0 -14 6 -26l364 -500q8 -14 9 -25q0 -12 -17 -12h-102q-35 0 -62 20l-430 521q-10 16 -10 22z" />
<glyph unicode="&#xac;" horiz-adv-x="993" d="M41 668v100h840v-494h-99v394h-741z" />
<glyph unicode="&#xad;" />
<glyph unicode="&#xae;" horiz-adv-x="1640" d="M41 719q0 145 56.5 279.5t156.5 237.5t236.5 164.5t295.5 61.5q143 0 277.5 -55t238 -154.5t165 -235.5t61.5 -298q0 -147 -57.5 -281.5t-159 -238t-237.5 -164t-294 -60.5q-152 0 -286 59.5t-235 162t-159.5 236.5t-58.5 286zM113 719q0 -141 55 -264t147.5 -214 t213 -142.5t251.5 -51.5q139 0 262 53.5t214.5 145.5t144.5 214t53 259q0 150 -57.5 273.5t-151.5 211.5t-214 137.5t-245 49.5q-135 0 -251.5 -45.5t-227.5 -151.5q-86 -80 -140 -206t-54 -269zM432 236q0 14 13.5 21t31 13t30.5 14.5t13 24.5v815q0 12 -13 20.5 t-30.5 15.5t-31 15.5t-13.5 20.5q0 23 29 23h309q154 0 241 -68t87 -203q0 -55 -22.5 -103t-56.5 -83t-74 -55.5t-77 -20.5q-16 -6 -16 -16q0 -8 6 -17l211 -352q8 -14 23.5 -21.5t30 -13.5t24.5 -12t10 -18q0 -23 -33 -23h-90q-29 0 -45 29l-237 401q-16 25 -41 25h-43 q-31 0 -31 -27v-332q0 -31 45 -37q45 -14 45 -36q0 -23 -29 -23h-237q-29 0 -29 23zM637 770q0 -27 29 -27h86q227 0 227 201q0 193 -227 199l-78 2h-6q-31 0 -31 -27v-348z" />
<glyph unicode="&#xaf;" horiz-adv-x="669" d="M41 1194v127h516v-127h-516z" />
<glyph unicode="&#xb0;" horiz-adv-x="655" d="M41 1186q0 49 18.5 94t51 80t79 55.5t103.5 20.5q55 0 101 -22.5t79 -57.5t51.5 -80t18.5 -90q0 -43 -17.5 -88t-50.5 -81t-80 -58.5t-104 -22.5t-103.5 21.5t-79 56.5t-50 80t-17.5 92zM145 1186q0 -66 46.5 -106t101.5 -40q25 0 50.5 10.5t46 30t33.5 46t13 59.5 q0 37 -14 64.5t-35.5 45t-47.5 26.5t-46 9q-25 0 -51.5 -9t-48 -27.5t-35 -46t-13.5 -62.5z" />
<glyph unicode="&#xb1;" horiz-adv-x="940" d="M41 688q0 23 12 35q14 12 37 12l293 -4l-6 281q0 27 12 37q12 12 36 11t38 -13q12 -16 12 -37l6 -283l293 -4q10 0 20.5 -1t18.5 -9q12 -12 13 -37t-11 -39q-16 -12 -39 -12l-293 6l6 -307q0 -25 -12 -37t-35.5 -11.5t-35.5 13.5q-14 14 -15 39l-6 303l-295 4 q-25 2 -35 12q-14 14 -14 41zM66 154q4 47 51 47h655q51 0 51 -47q0 -25 -15 -37.5t-36 -12.5h-657q-53 0 -49 50z" />
<glyph unicode="&#xb2;" horiz-adv-x="630" d="M41 1075v41q4 31 37 58l219 188q66 55 65 145q-2 59 -32.5 83t-100.5 24q-57 0 -137 -19q-2 -2 -14 -2q-25 0 -37 27q0 39 31 45q100 49 192 49q117 0 173.5 -55t54.5 -137q0 -68 -44.5 -127.5t-119.5 -122.5l-146 -123h219q8 0 17.5 13.5t13.5 17.5q10 16 23.5 27.5 t27.5 11.5q35 0 35 -33l-18 -101q-4 -18 -13.5 -30.5t-27.5 -12.5h-383q-35 0 -35 33z" />
<glyph unicode="&#xb3;" horiz-adv-x="636" d="M41 973q8 31 43 31q51 -16 91 -21.5t75 -5.5q152 0 151 162q0 59 -33.5 88.5t-88.5 29.5h-60q-35 0 -35 39v21q0 33 35 33h60q57 0 81.5 28.5t24.5 81.5q0 59 -36 105.5t-111 46.5q-55 0 -136 -31q-35 0 -43 33q0 20 25 36.5t56.5 29t64.5 18.5t51 6q59 0 105.5 -20.5 t77 -54.5t47 -79t16.5 -96q0 -106 -68 -151q90 -48 90 -179q0 -104 -67.5 -173.5t-196.5 -69.5q-18 0 -55 6t-74 17t-63.5 28.5t-26.5 40.5z" />
<glyph unicode="&#xb4;" horiz-adv-x="509" d="M41 1106l225 231q29 29 43.5 37t30.5 8q27 0 42 -15t15 -40q0 -35 -47 -63l-256 -158h-53z" />
<glyph unicode="&#xb5;" horiz-adv-x="1292" d="M41 -342q0 39 41 39q111 0 165 59.5t54 200.5v903q0 23 -18.5 29t-42 8t-42 7t-18.5 26q0 14 17.5 27.5t44 22.5t58.5 14t60 5h60q41 0 41 -38v-621q0 -41 12 -82t37 -72.5t60.5 -51t82.5 -19.5q100 0 248 104v641q0 23 -18.5 29t-42 8t-42 7t-18.5 26q0 29 58.5 49 t181.5 20q39 0 39 -38v-832q0 -23 18.5 -30t42 -10t42 -7.5t18.5 -20.5t-18.5 -29.5t-45 -22.5t-53.5 -14t-43 -5l-70 2q-49 0 -49 49v98q-160 -141 -307 -141q-76 0 -133 25v-66q0 -180 -93.5 -260t-285.5 -80q-41 0 -41 41z" />
<glyph unicode="&#xb6;" horiz-adv-x="989" d="M41 1085q0 80 28.5 144.5t80 110.5t124 71t160.5 25h443v-70h-127v-1366h-82v1366h-166v-1366h-84v737q-186 10 -281.5 105.5t-95.5 242.5z" />
<glyph unicode="&#xb7;" horiz-adv-x="354" d="M41 700q0 80 100 80q47 0 74 -21.5t27 -58.5q0 -80 -101 -79q-100 0 -100 79z" />
<glyph unicode="&#xb8;" horiz-adv-x="561" d="M41 -291q82 -51 152 -51q66 0 94 21.5t28 66.5q0 41 -42 60.5t-107 19.5h-19q-14 0 -16 -2l47 176h64l-37 -104q31 6 61 6q88 0 135.5 -41t47.5 -115q0 -76 -57.5 -120t-162.5 -44q-125 0 -188 33v94z" />
<glyph unicode="&#xb9;" horiz-adv-x="438" d="M41 1638q0 16 13.5 25.5t31.5 13.5l131 35q37 0 37 -33v-540q0 -10 10 -15.5t21 -11.5q16 -10 28.5 -19.5t12.5 -23.5t-10.5 -20.5t-24.5 -6.5h-191q-14 0 -24 6.5t-10 20.5q0 16 13 25.5t27 17.5q10 6 20.5 12t10.5 17v463q0 8 -26 8h-23q-47 0 -47 26z" />
<glyph unicode="&#xba;" horiz-adv-x="741" d="M41 1368q0 117 46 203t132 121q53 23 115 22q63 0 117.5 -23.5t93.5 -68.5t61.5 -109.5t22.5 -144.5q0 -147 -77 -238.5t-218 -91.5q-66 0 -119 24.5t-92 68t-60.5 103.5t-21.5 134zM170 1368q0 -104 39 -172t125 -68q80 0 123 62.5t43 173.5q0 123 -39 193.5t-125 70.5 q-31 0 -68 -16q-51 -23 -74.5 -87.5t-23.5 -156.5z" />
<glyph unicode="&#xbb;" horiz-adv-x="1206" d="M41 1106q0 14 20 14l103 -2q33 0 49 -18l444 -516q9 -9 9 -21q0 -6 -11 -22l-430 -521q-33 -20 -61 -20h-103q-18 0 -18 12q0 8 10 25l365 500q6 12 6 24q0 10 -6 23l-369 501q-8 14 -8 21zM471 12q0 8 10 25l365 500q8 8 8 24q0 10 -6 23l-371 501q-6 12 -6 21 q0 14 18 14l103 -2q33 0 51 -18l442 -516q9 -9 9 -21q0 -6 -11 -22l-430 -521q-27 -20 -61 -20h-103q-18 0 -18 12z" />
<glyph unicode="&#xbc;" horiz-adv-x="1288" d="M41 -2l979 1360h106l-972 -1360h-113zM78 1296q0 16 13 26.5t32 14.5l131 35q37 0 37 -35v-549q0 -10 10 -15t21 -11q16 -10 28 -19.5t12 -25.5q0 -14 -10 -20.5t-24 -6.5h-191q-14 0 -24.5 6t-10.5 21q0 18 13.5 27.5t27.5 17.5q10 6 20.5 12t10.5 17v471q0 8 -27 8h-22 q-47 0 -47 26zM578 96v31q0 27 14 47l323 471l13 17q14 20 45 20h47q35 0 35 -33v-475q0 -14 14 -14h72q35 0 35 -33v-31q0 -31 -35 -30l-72 -3q-14 -2 -14 -12v-162q0 -33 -35 -32h-47q-35 0 -35 32v162q0 12 -12 12h-314q-33 0 -34 33zM690 156q0 -2 1 1t5 3h230 q12 0 12 14v356l-248 -372v-2z" />
<glyph unicode="&#xbd;" horiz-adv-x="1351" d="M41 -2l979 1360h106l-972 -1360h-113zM78 1298q0 16 13 25.5t32 13.5l131 35q37 0 37 -35v-549q0 -10 10 -15t21 -11q16 -8 28 -18.5t12 -24.5t-10 -20.5t-24 -6.5h-191q-14 0 -24.5 6.5t-10.5 20.5q0 16 13.5 26.5t27.5 16.5q10 6 20.5 12t10.5 17v471q0 8 -27 8h-22 q-47 0 -47 28zM762 35v41q4 31 37 57l219 191q66 59 65 147q-2 59 -32.5 84t-100.5 25q-57 0 -137 -19q-2 -2 -14 -2q-25 0 -37 29q0 35 31 45q100 49 192 49q117 0 173 -55.5t54 -141.5q0 -68 -44 -127t-119 -125l-146 -124h219q8 0 17.5 13t13.5 17q10 16 23.5 28.5 t27.5 12.5q35 0 35 -35l-18 -102q-4 -18 -13.5 -30.5t-27.5 -12.5h-383q-35 0 -35 35z" />
<glyph unicode="&#xbe;" horiz-adv-x="1447" d="M41 629q8 33 43 33q51 -16 91 -22.5t75 -6.5q152 0 151 164q0 59 -33.5 90t-88.5 31h-60q-35 0 -35 38v21q0 33 35 33h60q57 0 81.5 29.5t24.5 82.5q0 59 -36 106.5t-111 47.5q-55 0 -136 -31q-35 0 -43 33q0 20 25 36.5t56.5 29t64.5 18.5t51 6q59 0 105.5 -20.5 t77 -55.5t47 -80t16.5 -96q0 -109 -68 -153q90 -48 90 -181q0 -106 -67.5 -175.5t-196.5 -69.5q-18 0 -55 6t-74 17t-63.5 28.5t-26.5 40.5zM209 -2l979 1360h106l-972 -1360h-113zM737 96v31q0 27 15 47l323 471l12 17q14 20 46 20h47q35 0 34 -33v-475q0 -14 15 -14h71 q35 0 35 -33v-31q0 -31 -35 -30l-71 -3q-14 -2 -15 -12v-162q0 -33 -34 -32h-47q-35 0 -35 32v162q0 12 -13 12h-313q-35 0 -35 33zM850 156q0 -2 1 1t5 3h229q12 0 13 14v358l-248 -374v-2z" />
<glyph unicode="&#xbf;" horiz-adv-x="888" d="M41 137q6 31 33 31q14 0 16 -2q70 -23 129.5 -32t108.5 -9q135 0 203.5 75.5t68.5 211.5q0 176 -139 284q-141 111 -142 271l3 278h118l2 -276q0 -111 119 -191q98 -66 156.5 -162t58.5 -219q0 -82 -22.5 -152.5t-70.5 -123.5t-123 -84t-179 -31q-29 0 -86 9.5 t-113.5 25.5t-98.5 40.5t-42 55.5zM291 1407q0 80 90 80t90 -80q0 -37 -22.5 -58.5t-67.5 -21.5q-90 0 -90 80z" />
<glyph unicode="&#xc0;" horiz-adv-x="1310" d="M0 31q0 18 17.5 27.5t41 18.5t45 21.5t29.5 34.5l393 1204q12 41 56 41h77q39 0 52 -37l397 -1212q12 -39 72 -49q59 -22 59 -49q0 -31 -39 -31h-317q-43 0 -43 31q0 14 17 24.5t36.5 19.5t37 18t17.5 22q0 10 -2 12l-72 235q-12 37 -49 37h-446q-51 0 -60 -37l-63 -233 q-2 -2 -2 -12q0 -2 -2 -4q0 -12 17.5 -20.5t37 -16.5t36.5 -18.5t17 -26.5q0 -31 -41 -31h-280q-39 0 -39 31zM375 518q0 -18 28 -18h400q18 0 18 16q-2 0 -2 4t-1 7t-1 10l-201 616q-8 20 -14 21q-8 0 -14 -21l-209 -616q-4 -20 -4 -19zM430 1655q0 25 15.5 40t41.5 15 q16 0 30.5 -8t43.5 -37l225 -231h-53l-256 157q-47 29 -47 64z" />
<glyph unicode="&#xc1;" horiz-adv-x="1310" d="M0 31q0 18 17.5 27.5t41 18.5t45 21.5t29.5 34.5l393 1204q12 41 56 41h77q39 0 52 -37l397 -1212q12 -39 72 -49q59 -22 59 -49q0 -31 -39 -31h-317q-43 0 -43 31q0 14 17 24.5t36.5 19.5t37 18t17.5 22q0 10 -2 12l-72 235q-12 37 -49 37h-446q-51 0 -60 -37l-63 -233 q-2 -2 -2 -12q0 -2 -2 -4q0 -12 17.5 -20.5t37 -16.5t36.5 -18.5t17 -26.5q0 -31 -41 -31h-280q-39 0 -39 31zM375 518q0 -18 28 -18h400q18 0 18 16q-2 0 -2 4t-1 7t-1 10l-201 616q-8 20 -14 21q-8 0 -14 -21l-209 -616q-4 -20 -4 -19zM410 1434l225 231q29 29 43 37t31 8 q27 0 42 -15t15 -40q0 -35 -47 -64l-256 -157h-53z" />
<glyph unicode="&#xc2;" horiz-adv-x="1310" d="M0 31q0 18 17.5 27.5t41 18.5t45 21.5t29.5 34.5l393 1204q12 41 56 41h77q39 0 52 -37l397 -1212q12 -39 72 -49q59 -22 59 -49q0 -31 -39 -31h-317q-43 0 -43 31q0 14 17 24.5t36.5 19.5t37 18t17.5 22q0 10 -2 12l-72 235q-12 37 -49 37h-446q-51 0 -60 -37l-63 -233 q-2 -2 -2 -12q0 -2 -2 -4q0 -12 17.5 -20.5t37 -16.5t36.5 -18.5t17 -26.5q0 -31 -41 -31h-280q-39 0 -39 31zM375 518q0 -18 28 -18h400q18 0 18 16q-2 0 -2 4t-1 7t-1 10l-201 616q-8 20 -14 21q-8 0 -14 -21l-209 -616q-4 -20 -4 -19zM412 1456l161 250h82l162 -250h-39 l-164 152l-163 -152h-39z" />
<glyph unicode="&#xc3;" horiz-adv-x="1310" d="M0 31q0 18 17.5 27.5t41 18.5t45 21.5t29.5 34.5l393 1204q12 41 56 41h77q39 0 52 -37l397 -1212q12 -39 72 -49q59 -22 59 -49q0 -31 -39 -31h-317q-43 0 -43 31q0 14 17 24.5t36.5 19.5t37 18t17.5 22q0 10 -2 12l-72 235q-12 37 -49 37h-446q-51 0 -60 -37l-63 -233 q-2 -2 -2 -12q0 -2 -2 -4q0 -12 17.5 -20.5t37 -16.5t36.5 -18.5t17 -26.5q0 -31 -41 -31h-280q-39 0 -39 31zM375 518q0 -18 28 -18h400q18 0 18 16q-2 0 -2 4t-1 7t-1 10l-201 616q-8 20 -14 21q-8 0 -14 -21l-209 -616q-4 -20 -4 -19zM412 1436v94q39 43 73.5 58.5 t67.5 15.5q14 0 44 -9.5t62.5 -20.5t62.5 -20.5t44 -9.5q31 0 64.5 18.5t78.5 65.5v-92q-39 -45 -73.5 -60.5t-69.5 -15.5q-14 0 -44 9.5t-62.5 20.5t-62.5 20.5t-44 9.5q-31 0 -64.5 -18.5t-76.5 -65.5z" />
<glyph unicode="&#xc4;" horiz-adv-x="1310" d="M0 31q0 18 17.5 27.5t41 18.5t45 21.5t29.5 34.5l393 1204q12 41 56 41h77q39 0 52 -37l397 -1212q12 -39 72 -49q59 -22 59 -49q0 -31 -39 -31h-317q-43 0 -43 31q0 14 17 24.5t36.5 19.5t37 18t17.5 22q0 10 -2 12l-72 235q-12 37 -49 37h-446q-51 0 -60 -37l-63 -233 q-2 -2 -2 -12q0 -2 -2 -4q0 -12 17.5 -20.5t37 -16.5t36.5 -18.5t17 -26.5q0 -31 -41 -31h-280q-39 0 -39 31zM375 518q0 -18 28 -18h400q18 0 18 16q-2 0 -2 4t-1 7t-1 10l-201 616q-8 20 -14 21q-8 0 -14 -21l-209 -616q-4 -20 -4 -19zM440 1579q0 63 72 63t72 -63 t-72 -63t-72 63zM657 1579q0 63 72 63t72 -63t-72 -63t-72 63z" />
<glyph unicode="&#xc5;" horiz-adv-x="1310" d="M0 31q0 18 17.5 27.5t41 18.5t45 21.5t29.5 34.5l393 1204q12 41 56 41h77q39 0 52 -37l397 -1212q12 -39 72 -49q59 -22 59 -49q0 -31 -39 -31h-317q-43 0 -43 31q0 14 17 24.5t36.5 19.5t37 18t17.5 22q0 10 -2 12l-72 235q-12 37 -49 37h-446q-51 0 -60 -37l-63 -233 q-2 -2 -2 -12q0 -2 -2 -4q0 -12 17.5 -20.5t37 -16.5t36.5 -18.5t17 -26.5q0 -31 -41 -31h-280q-39 0 -39 31zM375 518q0 -18 28 -18h400q18 0 18 16q-2 0 -2 4t-1 7t-1 10l-201 616q-8 20 -14 21q-8 0 -14 -21l-209 -616q-4 -20 -4 -19zM475 1575q0 59 41 100t100 41 q66 0 105 -44t39 -97q0 -59 -42 -101t-102 -42q-63 0 -102 44t-39 99zM537 1575q0 -35 22.5 -57.5t56.5 -22.5q33 0 56.5 22.5t23.5 57.5q0 29 -22.5 54.5t-57.5 25.5q-31 0 -55 -22.5t-24 -57.5z" />
<glyph unicode="&#xc6;" horiz-adv-x="1953" d="M0 18q0 23 19.5 34t47 20.5t56.5 23t45 37.5l780 1184q27 43 68 43h782q41 0 41 -41v-139q0 -39 -29 -39q-18 0 -29.5 18.5t-20.5 41t-19 41t-29 18.5h-534q-37 0 -37 -37v-443q0 -41 43 -41h229q18 0 29.5 18.5t21 42t20.5 42t29 18.5q29 0 29 -41v-254q0 -45 -29 -45 q-18 0 -29 18.5t-20.5 42t-20.5 42t-30 18.5h-231q-41 0 -41 -45l2 -467v-12q10 -16 31 -17h534q20 0 32.5 18.5t22 41t19.5 41t28 18.5q29 0 29 -39l2 -139q0 -41 -45 -41h-922q-35 0 -34 20q0 18 21.5 30.5t48 23t48 21.5t21.5 32l4 238q0 35 -37 34h-446q-51 0 -72 -37 l-137 -233q-10 -16 -10 -23q0 -10 12 -16t27.5 -12t28.5 -15.5t13 -23.5v-8q-10 -31 -51 -31h-280q-31 0 -31 18zM532 514q0 -14 23 -14h401q27 0 27 37l-4 616q0 23 -8 23q-6 0 -23 -23l-405 -616q-10 -16 -11 -23z" />
<glyph unicode="&#xc7;" horiz-adv-x="1073" d="M41 680q0 352 145.5 521t440.5 169q178 0 334 -82v-178q0 -59 -29 -59q-33 0 -51 59l-21 59q-57 100 -215 101q-94 0 -174 -38t-139.5 -111.5t-93 -184.5t-33.5 -256t33.5 -256t93 -184.5t139.5 -111.5t174 -38q158 0 215 100l21 60q18 59 51 59q29 0 29 -59v-180 q-164 -80 -334 -80h-29l-33 -94q31 6 62 6q88 0 135 -41t47 -115q0 -76 -57.5 -120t-161.5 -44q-125 0 -189 33v94q82 -51 152 -51q66 0 94.5 21.5t28.5 66.5q0 43 -45 61.5t-107 18.5h-16q-14 0 -16 -2l45 170q-223 23 -349 168q-147 174 -147 518z" />
<glyph unicode="&#xc8;" d="M41 31q0 18 18.5 28.5t41 18.5t41 19.5t18.5 31.5l2 1100q0 23 -18.5 33t-42 17t-42 17.5t-18.5 32.5q0 31 39 31h899q41 0 41 -41v-139q0 -39 -31 -39q-18 0 -28.5 18.5t-19.5 41t-19.5 41t-28.5 18.5h-535q-39 0 -39 -37v-443q0 -41 43 -41h232q18 0 29.5 18.5t20.5 42 t19.5 42t28.5 18.5q31 0 31 -41v-254q0 -45 -31 -45q-18 0 -28.5 18.5t-19.5 42t-20.5 42t-29.5 18.5h-232q-43 0 -43 -45v-461q0 -35 35 -35h533q23 0 35 18.5t21 41t19.5 41t28.5 18.5q29 0 29 -39v-137q0 -43 -43 -43h-893q-43 0 -43 31zM430 1655q0 25 15.5 40t41.5 15 q16 0 30.5 -8t43.5 -37l225 -231h-53l-256 157q-47 29 -47 64z" />
<glyph unicode="&#xc9;" d="M41 31q0 18 18.5 28.5t41 18.5t41 19.5t18.5 31.5l2 1100q0 23 -18.5 33t-42 17t-42 17.5t-18.5 32.5q0 31 39 31h899q41 0 41 -41v-139q0 -39 -31 -39q-18 0 -28.5 18.5t-19.5 41t-19.5 41t-28.5 18.5h-535q-39 0 -39 -37v-443q0 -41 43 -41h232q18 0 29.5 18.5t20.5 42 t19.5 42t28.5 18.5q31 0 31 -41v-254q0 -45 -31 -45q-18 0 -28.5 18.5t-19.5 42t-20.5 42t-29.5 18.5h-232q-43 0 -43 -45v-461q0 -35 35 -35h533q23 0 35 18.5t21 41t19.5 41t28.5 18.5q29 0 29 -39v-137q0 -43 -43 -43h-893q-43 0 -43 31zM348 1434l225 231q29 29 43.5 37 t30.5 8q27 0 42.5 -15t15.5 -40q0 -35 -48 -64l-256 -157h-53z" />
<glyph unicode="&#xca;" d="M41 31q0 18 18.5 28.5t41 18.5t41 19.5t18.5 31.5l2 1100q0 23 -18.5 33t-42 17t-42 17.5t-18.5 32.5q0 31 39 31h899q41 0 41 -41v-139q0 -39 -31 -39q-18 0 -28.5 18.5t-19.5 41t-19.5 41t-28.5 18.5h-535q-39 0 -39 -37v-443q0 -41 43 -41h232q18 0 29.5 18.5t20.5 42 t19.5 42t28.5 18.5q31 0 31 -41v-254q0 -45 -31 -45q-18 0 -28.5 18.5t-19.5 42t-20.5 42t-29.5 18.5h-232q-43 0 -43 -45v-461q0 -35 35 -35h533q23 0 35 18.5t21 41t19.5 41t28.5 18.5q29 0 29 -39v-137q0 -43 -43 -43h-893q-43 0 -43 31zM350 1456l162 250h82l162 -250 h-39l-164 152l-164 -152h-39z" />
<glyph unicode="&#xcb;" d="M41 31q0 18 18.5 28.5t41 18.5t41 19.5t18.5 31.5l2 1100q0 23 -18.5 33t-42 17t-42 17.5t-18.5 32.5q0 31 39 31h899q41 0 41 -41v-139q0 -39 -31 -39q-18 0 -28.5 18.5t-19.5 41t-19.5 41t-28.5 18.5h-535q-39 0 -39 -37v-443q0 -41 43 -41h232q18 0 29.5 18.5t20.5 42 t19.5 42t28.5 18.5q31 0 31 -41v-254q0 -45 -31 -45q-18 0 -28.5 18.5t-19.5 42t-20.5 42t-29.5 18.5h-232q-43 0 -43 -45v-461q0 -35 35 -35h533q23 0 35 18.5t21 41t19.5 41t28.5 18.5q29 0 29 -39v-137q0 -43 -43 -43h-893q-43 0 -43 31zM379 1579q0 63 72 63 q71 0 71 -63t-71 -63q-72 0 -72 63zM596 1579q0 63 72 63q71 0 71 -63t-71 -63q-72 0 -72 63z" />
<glyph unicode="&#xcc;" horiz-adv-x="555" d="M41 31q0 23 18.5 32t42 16t42 16t18.5 32v1110q0 16 -18.5 26.5t-42 18.5t-42 18.5t-18.5 28.5q0 31 43 31h315q41 0 41 -31t-59 -49q-59 -10 -59 -49v-1102q0 -23 18 -33t42 -16t42 -16t18 -33q0 -31 -43 -31h-317q-41 0 -41 31zM41 1655q0 53 57 55q18 0 31.5 -8 t42.5 -37l227 -231h-53l-258 157q-47 29 -47 64z" />
<glyph unicode="&#xcd;" horiz-adv-x="571" d="M41 31q0 23 18.5 33t42 16t42 15t18.5 32v1110q0 16 -18.5 26.5t-42 18.5t-42 18.5t-18.5 28.5q0 31 43 31h315q41 0 41 -31t-59 -49q-61 -10 -62 -49v-1102q0 -23 19.5 -33t42 -17t42 -16t19.5 -32q-4 -31 -43 -31h-317q-41 0 -41 31zM102 1434l226 231q29 29 43 37 t30 8q27 0 42.5 -15t15.5 -40q0 -35 -47 -64l-256 -157h-54z" />
<glyph unicode="&#xce;" horiz-adv-x="563" d="M41 1456l162 250h84l162 -250h-41l-164 152l-162 -152h-41zM49 31q0 23 18.5 32t42 16t42 16t18.5 32v1110q0 16 -18.5 26.5t-42 18.5t-42 18.5t-18.5 28.5q0 31 43 31h318q41 0 41 -31t-62 -49q-59 -10 -59 -49v-1102q0 -23 18.5 -33t42 -16t42 -16t18.5 -33 q0 -31 -43 -31h-318q-41 0 -41 31z" />
<glyph unicode="&#xcf;" horiz-adv-x="555" d="M41 31q0 23 18.5 33t42 16t42 15t18.5 32v1110q0 16 -18.5 26.5t-42 18.5t-42 18.5t-18.5 28.5q0 31 43 31h315q41 0 41 -31t-59 -49q-61 -10 -62 -49v-1102q0 -23 19.5 -33t42 -17t42 -16t19.5 -32q-4 -31 -43 -31h-317q-41 0 -41 31zM68 1579q0 63 71 63q72 0 72 -63 t-72 -63t-71 63zM285 1579q0 63 71 63q72 0 72 -63t-72 -63t-71 63z" />
<glyph unicode="&#xd0;" horiz-adv-x="1212" d="M0 686q4 47 51 47h533q51 0 51 -47q0 -25 -15.5 -37t-35.5 -12h-535q-53 0 -49 49zM41 31q0 18 18.5 28.5t41 18.5t41 19.5t18.5 31.5v1100q0 20 -18.5 32.5t-41 20.5t-41 18.5t-18.5 28.5q0 31 41 31h457q561 0 561 -680t-559 -680h-461q-39 0 -39 31zM319 141 q0 -41 46 -41h176q186 0 287.5 144.5t101.5 435.5t-102.5 435.5t-288.5 144.5h-179q-41 0 -41 -37v-1082z" />
<glyph unicode="&#xd1;" horiz-adv-x="1271" d="M41 31q0 18 18.5 28.5t42 18.5t42 19.5t18.5 31.5v1090q0 23 -18.5 36t-42 23t-42 21.5t-18.5 29.5q0 31 41 31h201q41 0 61 -39l551 -1014q10 -23 18 -22q6 0 7 22v924q0 39 -60 49q-61 18 -61 49t43 31h274q43 0 43 -31q0 -18 -18.5 -28.5t-41 -18.5t-41 -19.5 t-18.5 -29.5v-1192q0 -41 -43 -41h-94q-43 0 -63 39l-533 997q-12 25 -20 25q-6 0 -6 -21v-911q0 -20 18 -31.5t42 -19.5t42 -18.5t18 -28.5q0 -31 -39 -31h-280q-41 0 -41 31zM352 1464v95q39 43 74 58t68 15q14 0 43.5 -9t62.5 -20.5t62.5 -20.5t44.5 -9q31 0 64.5 18.5 t76.5 65.5v-92q-37 -45 -72 -60.5t-69 -15.5q-14 0 -45 9t-65 20.5t-62.5 20.5t-40.5 9q-29 0 -63 -15t-79 -69z" />
<glyph unicode="&#xd2;" horiz-adv-x="1253" d="M41 680q0 688 537 688h26q266 0 401.5 -172t135.5 -516t-135.5 -516t-401.5 -172h-26q-537 0 -537 688zM201 680q0 -276 107.5 -425t283.5 -163q174 14 281.5 163t107.5 425t-107.5 424.5t-281.5 163.5q-176 -14 -283.5 -163t-107.5 -425zM430 1655q0 25 15.5 40t41.5 15 q16 0 30.5 -8t43.5 -37l225 -231h-53l-256 157q-47 29 -47 64z" />
<glyph unicode="&#xd3;" horiz-adv-x="1253" d="M41 680q0 688 537 688h26q266 0 401.5 -172t135.5 -516t-135.5 -516t-401.5 -172h-26q-537 0 -537 688zM201 680q0 -276 107.5 -425t283.5 -163q174 14 281.5 163t107.5 425t-107.5 424.5t-281.5 163.5q-176 -14 -283.5 -163t-107.5 -425zM410 1434l225 231q29 29 43 37 t31 8q27 0 42 -15t15 -40q0 -35 -47 -64l-256 -157h-53z" />
<glyph unicode="&#xd4;" horiz-adv-x="1253" d="M41 680q0 688 537 688h26q266 0 401.5 -172t135.5 -516t-135.5 -516t-401.5 -172h-26q-537 0 -537 688zM201 680q0 -276 107.5 -425t283.5 -163q174 14 281.5 163t107.5 425t-107.5 424.5t-281.5 163.5q-176 -14 -283.5 -163t-107.5 -425zM389 1456l162 250h82l162 -250 h-39l-164 152l-164 -152h-39z" />
<glyph unicode="&#xd5;" horiz-adv-x="1253" d="M41 680q0 688 537 688h26q266 0 401.5 -172t135.5 -516t-135.5 -516t-401.5 -172h-26q-537 0 -537 688zM201 680q0 -276 107.5 -425t283.5 -163q174 14 281.5 163t107.5 425t-107.5 424.5t-281.5 163.5q-176 -14 -283.5 -163t-107.5 -425zM383 1436v94q39 43 74 58.5 t67 15.5q14 0 44 -9.5t63 -20.5t62.5 -20.5t43.5 -9.5q31 0 65 18.5t79 65.5v-92q-39 -45 -74 -60.5t-70 -15.5q-14 0 -43.5 9.5t-62.5 20.5t-62.5 20.5t-44.5 9.5q-31 0 -64.5 -18.5t-76.5 -65.5z" />
<glyph unicode="&#xd6;" horiz-adv-x="1253" d="M41 680q0 688 537 688h26q266 0 401.5 -172t135.5 -516t-135.5 -516t-401.5 -172h-26q-537 0 -537 688zM201 680q0 -276 107.5 -425t283.5 -163q174 14 281.5 163t107.5 425t-107.5 424.5t-281.5 163.5q-176 -14 -283.5 -163t-107.5 -425zM410 1579q0 63 71 63 q72 0 72 -63t-72 -63t-71 63zM627 1579q0 63 71 63q74 0 74 -63t-74 -63q-72 0 -71 63z" />
<glyph unicode="&#xd7;" horiz-adv-x="761" d="M41 764q0 16 18.5 32.5t34.5 16.5t39 -16l217 -211l211 205q23 16 35 16q16 0 39 -19q14 -14 14 -32t-16 -35l-211 -205l205 -194q16 -16 16 -35q0 -16 -17.5 -32.5t-35.5 -16.5q-14 0 -37 16l-203 195l-209 -205q-18 -18 -37 -19q-16 0 -34.5 17.5t-18.5 33.5 q0 18 19 37l211 203l-222 213q-18 18 -18 35z" />
<glyph unicode="&#xd8;" horiz-adv-x="1253" d="M41 680q0 688 537 688h26q266 0 401.5 -172t135.5 -516t-135.5 -516t-401.5 -172h-26q-537 0 -537 688zM201 680q0 -276 106 -426q20 -27 42 -49.5t48 -42.5l326 1071q-74 29 -131 35q-176 -14 -283.5 -163t-107.5 -425zM455 127q74 -29 137 -35q174 14 281.5 163 t107.5 425q0 272 -109 424q-20 29 -42.5 52.5t-45.5 39.5z" />
<glyph unicode="&#xd9;" horiz-adv-x="1271" d="M41 1329q0 31 41 31h319q39 0 39 -31q0 -18 -18.5 -28.5t-42 -18.5t-42 -19.5t-18.5 -31.5v-791q0 -322 295 -321q166 0 237 83t71 236v793q0 18 -18.5 29.5t-41 20.5t-42 19.5t-21.5 26.5q0 33 41 33l280 -2q39 0 39 -31q0 -16 -18.5 -26.5t-41 -19.5t-41 -20.5 t-18.5 -29.5v-772q0 -115 -33.5 -201t-94 -143.5t-145.5 -86t-187 -28.5q-199 0 -308.5 119t-109.5 360v752q0 20 -18.5 31.5t-42 19.5t-42 18.5t-18.5 28.5zM430 1655q0 25 15.5 40t41.5 15q16 0 30.5 -8t43.5 -37l225 -231h-53l-256 157q-47 29 -47 64z" />
<glyph unicode="&#xda;" horiz-adv-x="1271" d="M41 1329q0 31 41 31h319q39 0 39 -31q0 -18 -18.5 -28.5t-42 -18.5t-42 -19.5t-18.5 -31.5v-791q0 -328 312 -321q156 4 223.5 87t67.5 232v793q0 18 -18.5 29.5t-41 20.5t-42 19.5t-21.5 26.5q0 33 41 33l280 -2q39 0 39 -31q0 -16 -18.5 -26.5t-41 -19.5t-41 -20.5 t-18.5 -29.5v-772q0 -115 -33.5 -201t-94 -143.5t-145.5 -86t-187 -28.5q-199 0 -308.5 119t-109.5 360v752q0 20 -18.5 31.5t-42 19.5t-42 18.5t-18.5 28.5zM451 1434l225 231q29 29 43 37t31 8q27 0 42 -15t15 -40q0 -35 -47 -64l-256 -157h-53z" />
<glyph unicode="&#xdb;" horiz-adv-x="1271" d="M41 1329q0 31 41 31h319q39 0 39 -31q0 -18 -18.5 -28.5t-42 -18.5t-42 -19.5t-18.5 -31.5v-791q0 -328 312 -321q156 4 223.5 87t67.5 232v793q0 18 -18.5 29.5t-41 20.5t-42 19.5t-21.5 26.5q0 33 41 33l280 -2q39 0 39 -31q0 -16 -18.5 -26.5t-41 -19.5t-41 -20.5 t-18.5 -29.5v-772q0 -115 -33.5 -201t-94 -143.5t-145.5 -86t-187 -28.5q-199 0 -308.5 119t-109.5 360v752q0 20 -18.5 31.5t-42 19.5t-42 18.5t-18.5 28.5zM412 1456l161 250h82l162 -250h-39l-164 152l-163 -152h-39z" />
<glyph unicode="&#xdc;" horiz-adv-x="1271" d="M41 1329q0 31 41 31h319q39 0 39 -31q0 -18 -18.5 -28.5t-42 -18.5t-42 -19.5t-18.5 -31.5v-791q0 -328 312 -321q156 4 223.5 87t67.5 232v793q0 18 -18.5 29.5t-41 20.5t-42 19.5t-21.5 26.5q0 33 41 33l280 -2q39 0 39 -31q0 -16 -18.5 -26.5t-41 -19.5t-41 -20.5 t-18.5 -29.5v-772q0 -115 -33.5 -201t-94 -143.5t-145.5 -86t-187 -28.5q-199 0 -308.5 119t-109.5 360v752q0 20 -18.5 31.5t-42 19.5t-42 18.5t-18.5 28.5zM420 1579q0 63 72 63q71 0 71 -63t-71 -63q-72 0 -72 63zM637 1579q0 63 72 63q71 0 71 -63t-71 -63q-72 0 -72 63 z" />
<glyph unicode="&#xdd;" horiz-adv-x="1253" d="M41 1329q0 31 41 31h338q41 0 41 -31q0 -14 -16.5 -21.5t-45.5 -17.5l-28 -10q-14 -2 -15 -18q0 -10 6 -23l246 -444q10 -16 19 -17q6 0 16 17l238 444q6 12 6 21q0 12 -17 12l-30 8q-31 8 -45.5 22.5t-14.5 26.5q0 31 41 31h279q41 0 41 -31q0 -18 -18.5 -28.5 t-43 -18.5t-48 -18.5t-34.5 -30.5l-297 -559q-25 -45 -20 -68v-475q0 -20 18.5 -31.5t42 -20.5t42 -19.5t18.5 -28.5q0 -31 -41 -31h-320q-39 0 -39 31q0 18 18.5 28.5t41 19.5t41 20.5t18.5 29.5v479q0 29 -20 68l-318 557q-10 18 -33.5 28.5t-47 19.5t-42 19.5t-18.5 28.5 zM451 1434l225 231q29 29 43 37t31 8q27 0 42 -15t15 -40q0 -35 -47 -64l-256 -157h-53z" />
<glyph unicode="&#xde;" horiz-adv-x="1069" d="M41 -377q0 18 18.5 22.5t42 7.5t42 10t18.5 30l2 1628q0 23 -18.5 29t-42 9t-42 8t-18.5 24q0 14 18.5 27.5t44 22.5t52 14t45.5 5h59q61 0 62 -39v-440q0 -27 16 -27q8 0 22 9q88 45 187 45q90 0 164.5 -37t129 -101.5t84 -149.5t29.5 -183q0 -104 -29.5 -201.5 t-89 -172.5t-148.5 -120t-208 -45q-39 0 -75.5 6t-83.5 19v-431q0 -39 -62 -38h-59q-18 0 -45 5t-52.5 14t-44 21.5t-18.5 28.5zM322 168q0 -25 19 -38t46 -19.5t53.5 -7.5t42.5 -1q63 0 122 28t102 82t68.5 135.5t25.5 187.5q0 166 -72 264t-203 98q-18 0 -53 -3 t-68.5 -12.5t-58 -25.5t-24.5 -41v-647z" />
<glyph unicode="&#xdf;" horiz-adv-x="1292" d="M41 31q0 18 18.5 28.5t42 18.5t42 19.5t18.5 31.5v733q0 37 -41 37h-39q-41 0 -41 51q0 49 41 49h59q20 0 21 21q0 180 93 260t286 80h37q33 0 85 -8.5t101 -33t85 -70.5t36 -122q0 -41 -13.5 -73.5t-34 -59t-45 -46t-47.5 -34.5q-10 -6 -23 -15t-27.5 -26.5t-23.5 -41 t-9 -56.5q0 -119 260 -213q135 -49 196.5 -122t61.5 -171q0 -141 -90.5 -210.5t-264.5 -69.5q-72 0 -150.5 16t-164.5 55l-39 209q0 33 49 33q29 0 39 -31l31 -90q20 -45 68.5 -75.5t127.5 -30.5q123 0 180.5 57t57.5 143q0 104 -260 199q-258 94 -258 289q0 80 43 134 t121 95q12 6 27.5 15.5t28.5 25t23.5 39t10.5 55.5v21q-10 72 -68.5 102.5t-144.5 30.5h-6q0 -4 -2 -4q-4 0 -9 4q-104 -4 -156 -61.5t-52 -198.5v-891q0 -20 18 -31.5t40.5 -19.5t41 -18.5t18.5 -28.5q0 -31 -39 -31h-319q-41 0 -41 31z" />
<glyph unicode="&#xe0;" horiz-adv-x="970" d="M41 258q-4 86 28.5 149.5t96 103.5t155 59.5t205.5 19.5h33q39 0 39 41v71q0 111 -49 169.5t-148 58.5q-63 0 -120.5 -7.5t-112.5 -23.5q-41 4 -41 31q0 29 41 47q76 39 229 39q186 0 273.5 -86t87.5 -246v-547q0 -27 15 -39t34.5 -20t35 -16.5t15.5 -26.5 q-4 -35 -61 -35q-119 0 -181 70q-137 -70 -274 -70q-141 0 -219 70.5t-82 187.5zM190 279q0 -35 10.5 -69t35 -60.5t64.5 -43t99 -16.5q88 0 158 21q41 10 41 49v321q0 39 -39 39q-203 -8 -286 -68.5t-83 -172.5zM225 1327q0 25 15.5 40t42.5 15q16 0 30.5 -8t42.5 -37 l226 -231h-54l-256 158q-47 29 -47 63z" />
<glyph unicode="&#xe1;" horiz-adv-x="970" d="M41 272q0 84 35 144.5t99.5 98.5t153.5 56.5t197 18.5h33q39 0 39 41v71q0 111 -51 169.5t-150 58.5q-61 0 -118.5 -7.5t-110.5 -23.5q-41 4 -41 31q0 29 41 47q76 39 229 39q186 0 273.5 -86t87.5 -246v-547q0 -27 15 -39t34.5 -20t35 -16.5t15.5 -26.5q-4 -35 -61 -35 q-119 0 -181 70q-137 -70 -274 -70q-147 0 -224 75t-77 197zM190 279q0 -35 10.5 -69t35 -60.5t64.5 -43t99 -16.5q88 0 158 21q41 10 41 49v321q0 39 -39 39q-203 -8 -286 -68.5t-83 -172.5zM205 1106l225 231q29 29 43 37t31 8q27 0 42 -15t15 -40q0 -35 -47 -63 l-256 -158h-53z" />
<glyph unicode="&#xe2;" horiz-adv-x="970" d="M41 272q0 84 35 144.5t99.5 98.5t153.5 56.5t197 18.5h33q39 0 39 41v71q0 111 -51 169.5t-150 58.5q-61 0 -118.5 -7.5t-110.5 -23.5q-41 4 -41 31q0 29 41 47q76 39 229 39q186 0 273.5 -86t87.5 -246v-547q0 -27 15 -39t34.5 -20t35 -16.5t15.5 -26.5q-4 -35 -61 -35 q-119 0 -181 70q-137 -70 -274 -70q-147 0 -224 75t-77 197zM186 1108l162 250h82l162 -250h-39l-164 152l-164 -152h-39zM190 279q0 -35 10.5 -69t35 -60.5t64.5 -43t99 -16.5q88 0 158 21q41 10 41 49v321q0 39 -39 39q-203 -8 -286 -68.5t-83 -172.5z" />
<glyph unicode="&#xe3;" horiz-adv-x="970" d="M41 272q0 84 35 144.5t99.5 98.5t153.5 56.5t197 18.5h33q39 0 39 41v71q0 111 -51 169.5t-150 58.5q-61 0 -118.5 -7.5t-110.5 -23.5q-41 4 -41 31q0 29 41 47q76 39 229 39q186 0 273.5 -86t87.5 -246v-547q0 -27 15 -39t34.5 -20t35 -16.5t15.5 -26.5q-4 -35 -61 -35 q-119 0 -181 70q-137 -70 -274 -70q-147 0 -224 75t-77 197zM168 1116v94q39 43 73.5 58.5t67.5 15.5q14 0 44 -9t63 -20.5t62.5 -20.5t43.5 -9q31 0 65 18.5t77 65.5v-92q-37 -45 -72 -60.5t-70 -15.5q-14 0 -45 9t-64.5 20.5t-62 20.5t-41.5 9q-29 0 -62.5 -15.5 t-78.5 -68.5zM190 279q0 -35 10.5 -69t35 -60.5t64.5 -43t99 -16.5q88 0 158 21q41 10 41 49v321q0 39 -39 39q-203 -8 -286 -68.5t-83 -172.5z" />
<glyph unicode="&#xe4;" horiz-adv-x="970" d="M41 272q0 84 35 144.5t99.5 98.5t153.5 56.5t197 18.5h33q39 0 39 41v71q0 111 -51 169.5t-150 58.5q-61 0 -118.5 -7.5t-110.5 -23.5q-41 4 -41 31q0 29 41 47q76 39 229 39q186 0 273.5 -86t87.5 -246v-547q0 -27 15 -39t34.5 -20t35 -16.5t15.5 -26.5q-4 -35 -61 -35 q-119 0 -181 70q-137 -70 -274 -70q-147 0 -224 75t-77 197zM190 279q0 -35 10.5 -69t35 -60.5t64.5 -43t99 -16.5q88 0 158 21q41 10 41 49v321q0 39 -39 39q-203 -8 -286 -68.5t-83 -172.5zM213 1202q0 63 72 64q71 -1 71 -64t-71 -63q-72 0 -72 63zM430 1202q0 63 72 64 q71 -1 71 -64t-71 -63q-72 0 -72 63z" />
<glyph unicode="&#xe5;" horiz-adv-x="970" d="M41 272q0 84 35 144.5t99.5 98.5t153.5 56.5t197 18.5h33q39 0 39 41v71q0 111 -51 169.5t-150 58.5q-61 0 -118.5 -7.5t-110.5 -23.5q-41 4 -41 31q0 29 41 47q76 39 229 39q186 0 273.5 -86t87.5 -246v-547q0 -27 15 -39t34.5 -20t35 -16.5t15.5 -26.5q-4 -35 -61 -35 q-119 0 -181 70q-137 -70 -274 -70q-147 0 -224 75t-77 197zM190 279q0 -35 10.5 -69t35 -60.5t64.5 -43t99 -16.5q88 0 158 21q41 10 41 49v321q0 39 -39 39q-203 -8 -286 -68.5t-83 -172.5zM256 1241q0 53 39 97t102 44q55 0 99.5 -41t44.5 -100t-42 -101t-102 -42 q-59 0 -100 41t-41 102zM317 1241q0 -35 22.5 -58.5t57.5 -23.5q33 0 56.5 23.5t23.5 58.5q0 29 -23.5 53.5t-56.5 24.5q-31 0 -55.5 -22.5t-24.5 -55.5z" />
<glyph unicode="&#xe6;" horiz-adv-x="1497" d="M41 272q0 84 35 144.5t99.5 98.5t153.5 56.5t197 18.5h33q39 0 39 41v71q0 111 -51 169.5t-150 58.5q-61 0 -118.5 -7.5t-110.5 -23.5q-41 4 -41 31q0 20 23.5 36.5t61.5 27t86 16.5t99 6q117 0 196 -38t120 -106q68 72 149.5 110t161.5 38q180 0 270 -131t90 -373 q0 -31 -32 -31h-584q0 -86 19.5 -158.5t57.5 -124.5t92 -82t122 -30q94 0 217 51q41 0 41 -26q0 -25 -34 -46.5t-80 -37t-93 -24.5t-72 -9q-78 0 -154.5 30.5t-135.5 84.5q-98 -57 -201 -86t-189 -29q-154 0 -235.5 74.5t-81.5 199.5zM190 279q0 -35 9.5 -69t33 -60.5 t62.5 -43t98 -16.5q41 0 83 7t85 20q37 12 37 43v289q-2 12 -2 25t-3 23.5t-10.5 16.5t-23.5 6q-203 -4 -286 -66.5t-83 -174.5zM776 606q0 -41 39 -41h389q43 0 39 41q-10 172 -64.5 248t-174.5 76q-109 0 -160 -87t-68 -237z" />
<glyph unicode="&#xe7;" horiz-adv-x="894" d="M41 485q0 104 31.5 199.5t90 168.5t143.5 115t194 42q88 0 241 -41v-160q0 -43 -39 -43q-20 0 -33.5 18.5t-26.5 43t-26.5 48t-33.5 33.5q-25 12 -49.5 16.5t-47.5 4.5q-57 0 -108 -33t-90 -92.5t-61.5 -140t-22.5 -179.5q0 -90 25.5 -163.5t71.5 -127t109.5 -82 t141.5 -28.5q82 0 190 37q41 0 41 -27q0 -23 -28.5 -41t-69.5 -31.5t-87 -20.5t-79 -7h-20l-35 -98q31 6 61 6q88 0 135.5 -41t47.5 -115q0 -76 -57.5 -120t-162.5 -44q-125 0 -188 33v94q82 -51 152 -51q66 0 94 21.5t28 66.5q0 43 -45 61.5t-106 18.5h-16q-14 0 -17 -2 l47 176q-29 4 -58.5 10t-58.5 19q-135 53 -206.5 171.5t-71.5 284.5z" />
<glyph unicode="&#xe8;" horiz-adv-x="942" d="M41 510q0 109 31.5 202t88 161.5t135.5 107.5t173 39q180 0 270 -131t90 -373q0 -31 -32 -31h-584q0 -86 20.5 -158.5t57.5 -124.5t91 -82t122 -30q94 0 217 51q41 0 41 -26q0 -25 -34 -46.5t-80 -37t-93 -24.5t-72 -9q-98 0 -180 38t-140.5 106.5t-90 162.5t-31.5 205z M221 606q0 -41 39 -41h389q43 0 39 41q-10 168 -61.5 244t-167.5 80q-115 2 -168 -82t-70 -242zM225 1327q0 25 15.5 40t42.5 15q16 0 30.5 -8t42.5 -37l226 -231h-54l-256 158q-47 29 -47 63z" />
<glyph unicode="&#xe9;" horiz-adv-x="942" d="M41 510q0 109 31.5 202t88 161.5t135.5 107.5t173 39q180 0 270 -131t90 -373q0 -31 -32 -31h-584q0 -86 19.5 -158.5t57.5 -124.5t92 -82t122 -30q94 0 217 51q41 0 41 -26q0 -25 -34 -46.5t-80 -37t-93 -24.5t-72 -9q-98 0 -180 38t-140.5 106.5t-90 162.5t-31.5 205z M221 606q0 -41 39 -41h389q43 0 39 41q-10 172 -64.5 248t-174.5 76q-109 0 -160 -87t-68 -237zM246 1106l225 231q29 29 43 37t31 8q27 0 42 -15t15 -40q0 -35 -47 -63l-256 -158h-53z" />
<glyph unicode="&#xea;" horiz-adv-x="942" d="M41 510q0 109 31.5 202t88 161.5t135.5 107.5t173 39q180 0 270 -131t90 -373q0 -31 -32 -31h-584q0 -86 19.5 -158.5t57.5 -124.5t92 -82t122 -30q94 0 217 51q41 0 41 -26q0 -25 -34 -46.5t-80 -37t-93 -24.5t-72 -9q-98 0 -180 38t-140.5 106.5t-90 162.5t-31.5 205z M221 606q0 -41 39 -41h389q43 0 39 41q-10 172 -64.5 248t-174.5 76q-109 0 -160 -87t-68 -237zM248 1108l162 250h82l161 -250h-39l-163 152l-164 -152h-39z" />
<glyph unicode="&#xeb;" horiz-adv-x="942" d="M41 510q0 109 31.5 202t88 161.5t135.5 107.5t173 39q180 0 270 -131t90 -373q0 -31 -32 -31h-584q0 -86 19.5 -158.5t57.5 -124.5t92 -82t122 -30q94 0 217 51q41 0 41 -26q0 -25 -34 -46.5t-80 -37t-93 -24.5t-72 -9q-98 0 -180 38t-140.5 106.5t-90 162.5t-31.5 205z M221 606q0 -41 39 -41h389q43 0 39 41q-10 172 -64.5 248t-174.5 76q-109 0 -160 -87t-68 -237zM274 1202q0 63 72 64q72 -1 72 -64t-72 -63t-72 63zM492 1202q0 63 71 64q72 -1 72 -64t-72 -63t-71 63z" />
<glyph unicode="&#xec;" horiz-adv-x="573" d="M41 1327q0 25 15.5 40t41.5 15q16 0 30.5 -8t43.5 -37l225 -231h-53l-256 158q-47 29 -47 63zM61 31q0 23 18.5 36t42 24t42 23.5t18.5 35.5v710q0 23 -18.5 30t-42 10t-42 7t-18.5 23q0 14 17.5 27.5t43 22.5t53.5 14t48 5h78q41 0 41 -38v-809q0 -23 18.5 -36.5 t41 -25.5t41 -25.5t18.5 -33.5q0 -31 -39 -31h-320q-41 0 -41 31z" />
<glyph unicode="&#xed;" horiz-adv-x="552" d="M41 31q0 23 18.5 36t42 24t42 23.5t18.5 35.5v710q0 23 -18.5 30t-42 10t-42 7t-18.5 23q0 14 17.5 27.5t43 22.5t53 14t48.5 5h78q41 0 41 -38v-809q0 -23 18 -36.5t40.5 -25.5t41 -25.5t18.5 -33.5q0 -31 -39 -31h-319q-41 0 -41 31zM41 1106l225 231q29 29 43.5 37 t30.5 8q27 0 42 -15t15 -40q0 -35 -47 -63l-256 -158h-53z" />
<glyph unicode="&#xee;" horiz-adv-x="565" d="M41 1108l162 250h82l161 -250h-38l-164 152l-164 -152h-39zM53 31q0 23 18.5 36t42 24t42 23.5t18.5 35.5v710q0 23 -18.5 30t-42 10t-42 7t-18.5 23q0 14 17.5 27.5t43 22.5t53.5 14t48 5h78q41 0 41 -38v-809q0 -23 18.5 -36.5t41 -25.5t41 -25.5t18.5 -33.5 q0 -31 -39 -31h-320q-41 0 -41 31z" />
<glyph unicode="&#xef;" horiz-adv-x="552" d="M41 31q0 23 18.5 36t42 24t42 23.5t18.5 35.5v710q0 23 -18.5 30t-42 10t-42 7t-18.5 23q0 14 17.5 27.5t43 22.5t53 14t48.5 5h78q41 0 41 -38v-809q0 -23 18 -36.5t40.5 -25.5t41 -25.5t18.5 -33.5q0 -31 -39 -31h-319q-41 0 -41 31zM41 1202q0 63 72 64q71 -1 71 -64 t-71 -63q-72 0 -72 63zM258 1202q0 63 72 64q73 -1 73 -64t-73 -63q-72 0 -72 63z" />
<glyph unicode="&#xf0;" horiz-adv-x="1005" d="M41 504q0 104 26.5 195.5t79 159t129 106.5t179.5 39q98 0 168.5 -43t87.5 -121l-29 141q-10 45 -34.5 96t-69.5 92q-8 12 -25 23l-104 -66h-56l103 105l-21 8q-31 12 -66.5 20.5t-76.5 8.5q-39 0 -82 -10.5t-90 -10.5q-29 0 -35 33q0 27 27.5 42t66.5 24.5t79 12.5t64 3 q111 0 216 -47l43 43q29 29 42 37t31 8q57 -2 58 -55q0 -33 -47 -64l-41 -27q61 -51 104 -124q66 -111 95.5 -256.5t29.5 -325.5q0 -145 -34 -249.5t-91 -171.5t-133 -98.5t-162 -31.5q-168 0 -297 111q-33 29 -58.5 74.5t-42 99t-25.5 111t-9 108.5zM209 514q0 -10 2 -43 t8 -76t21.5 -90t40 -87t63.5 -66.5t94 -26.5q289 0 289 395v51q0 45 -8 89.5t-31 60.5q-53 88 -112.5 129t-118.5 41q-61 0 -107.5 -30t-78 -82t-47 -120.5t-15.5 -144.5z" />
<glyph unicode="&#xf1;" horiz-adv-x="1153" d="M41 31q0 18 18.5 28.5t42 19.5t42 20.5t18.5 29.5v731q0 23 -18.5 30t-42 10t-42 7t-18.5 23q0 14 17.5 27.5t43 22.5t53 14t48.5 5h78q41 0 41 -38v-101q86 72 164.5 113t156.5 41q137 0 208 -93.5t71 -240.5l-2 -549q0 -20 18 -31.5t42 -20.5t42 -19.5t18 -28.5 q0 -31 -41 -31h-319q-41 0 -41 31q0 18 19.5 28.5t42 19.5t42 20.5t19.5 29.5v551q0 37 -11.5 76t-34 69.5t-56 50t-76.5 19.5q-53 0 -118 -30.5t-144 -84.5v-649q0 -20 18 -31.5t40.5 -20.5t41 -19.5t18.5 -28.5q0 -31 -39 -31h-319q-41 0 -41 31zM291 1116v94 q39 43 73.5 58.5t67.5 15.5q14 0 44 -9t62.5 -20.5t62.5 -20.5t44 -9q31 0 64.5 18.5t76.5 65.5v-92q-37 -45 -71.5 -60.5t-69.5 -15.5q-14 0 -45 9t-64.5 20.5t-62.5 20.5t-41 9q-29 0 -62.5 -15.5t-78.5 -68.5z" />
<glyph unicode="&#xf2;" horiz-adv-x="1013" d="M41 487q0 180 68.5 310.5t191.5 179.5q88 35 170 35q94 0 174 -37t136.5 -105.5t88 -166t31.5 -216.5q0 -113 -30.5 -205t-88 -158.5t-136.5 -102t-175 -35.5q-98 0 -177 36.5t-135.5 103.5t-87 159t-30.5 202zM207 487q0 -82 15.5 -153.5t47 -123.5t81.5 -83t120 -31 q66 0 116 28t84 79t50 120.5t16 155.5q0 205 -66.5 317.5t-197.5 112.5q-59 0 -111 -26q-82 -41 -118.5 -146.5t-36.5 -249.5zM307 1327q0 25 15.5 40t42.5 15q16 0 30.5 -8t42.5 -37l226 -231h-54l-256 158q-47 29 -47 63z" />
<glyph unicode="&#xf3;" horiz-adv-x="1013" d="M41 487q0 180 68.5 310.5t191.5 179.5q88 35 170 35q92 0 171 -36t136.5 -103.5t90 -165t32.5 -220.5q0 -111 -30.5 -202.5t-86 -158.5t-135.5 -103.5t-178 -36.5q-96 0 -175 35.5t-136.5 102t-88 159t-30.5 204.5zM207 487q0 -82 14.5 -152.5t47 -123.5t81.5 -84 t121 -31q63 0 113.5 28t84 79t51 120.5t17.5 155.5q0 94 -15 173t-48 136.5t-82 89t-119 31.5q-59 0 -111 -26q-82 -41 -118.5 -146.5t-36.5 -249.5zM287 1106l225 231q29 29 43 37t31 8q27 0 42 -15t15 -40q0 -35 -47 -63l-256 -158h-53z" />
<glyph unicode="&#xf4;" horiz-adv-x="1013" d="M41 487q0 180 68.5 310.5t191.5 179.5q88 35 170 35q92 0 171 -36t136.5 -103.5t90 -165t32.5 -220.5q0 -111 -30.5 -202.5t-86 -158.5t-135.5 -103.5t-178 -36.5q-96 0 -175 35.5t-136.5 102t-88 159t-30.5 204.5zM207 487q0 -82 14.5 -152.5t47 -123.5t81.5 -84 t121 -31q63 0 113.5 28t84 79t51 120.5t17.5 155.5q0 94 -15 173t-48 136.5t-82 89t-119 31.5q-59 0 -111 -26q-82 -41 -118.5 -146.5t-36.5 -249.5zM274 1108l162 250h82l162 -250h-39l-164 152l-164 -152h-39z" />
<glyph unicode="&#xf5;" horiz-adv-x="1013" d="M41 487q0 180 68.5 310.5t191.5 179.5q88 35 170 35q92 0 171 -36t136.5 -103.5t90 -165t32.5 -220.5q0 -111 -30.5 -202.5t-86 -158.5t-135.5 -103.5t-178 -36.5q-96 0 -175 35.5t-136.5 102t-88 159t-30.5 204.5zM207 487q0 -82 14.5 -152.5t47 -123.5t81.5 -84 t121 -31q63 0 113.5 28t84 79t51 120.5t17.5 155.5q0 94 -15 173t-48 136.5t-82 89t-119 31.5q-59 0 -111 -26q-82 -41 -118.5 -146.5t-36.5 -249.5zM209 1116v94q39 43 73.5 58.5t67.5 15.5q14 0 44 -9t62.5 -20.5t62.5 -20.5t44 -9q31 0 65 18.5t77 65.5v-92 q-37 -45 -72 -60.5t-70 -15.5q-14 0 -45 9t-64.5 20.5t-62.5 20.5t-41 9q-29 0 -62.5 -15.5t-78.5 -68.5z" />
<glyph unicode="&#xf6;" horiz-adv-x="1013" d="M41 487q0 180 68.5 310.5t191.5 179.5q88 35 170 35q92 0 171 -36t136.5 -103.5t90 -165t32.5 -220.5q0 -111 -30.5 -202.5t-86 -158.5t-135.5 -103.5t-178 -36.5q-96 0 -175 35.5t-136.5 102t-88 159t-30.5 204.5zM207 487q0 -82 14.5 -152.5t47 -123.5t81.5 -84 t121 -31q63 0 113.5 28t84 79t51 120.5t17.5 155.5q0 94 -15 173t-48 136.5t-82 89t-119 31.5q-59 0 -111 -26q-82 -41 -118.5 -146.5t-36.5 -249.5zM295 1202q0 63 72 64q71 -1 71 -64t-71 -63q-72 0 -72 63zM512 1202q0 63 72 64q71 -1 71 -64t-71 -63q-72 0 -72 63z" />
<glyph unicode="&#xf7;" horiz-adv-x="911" d="M41 543q4 47 51 47h656q51 0 51 -47q0 -25 -15.5 -37t-35.5 -12h-658q-53 0 -49 49zM307 293q0 -88 101 -88q100 0 100 88t-100 88t-101 -88zM307 293q0 88 101 88q100 0 100 -88t-100 -88t-101 88zM307 799q0 -88 101 -88q100 0 100 88t-100 88t-101 -88zM307 799 q0 88 101 88q100 0 100 -88t-100 -88t-101 88zM328 293q0 68 80 67q41 0 60 -18t19 -49q0 -68 -79 -68q-80 0 -80 68zM328 799q0 68 80 67q79 1 79 -67t-79 -68q-80 0 -80 68z" />
<glyph unicode="&#xf8;" horiz-adv-x="1013" d="M41 487q0 180 68.5 310.5t191.5 179.5q88 35 170 35q92 0 171 -36t136.5 -103.5t90 -165t32.5 -220.5q0 -111 -30.5 -202.5t-86 -158.5t-135.5 -103.5t-178 -36.5q-96 0 -175 35.5t-136.5 102t-88 159t-30.5 204.5zM207 487q0 -82 14.5 -152.5t46.5 -123.5q23 -39 60 -70 l227 754q-27 14 -82 14q-59 0 -111 -26q-82 -41 -118.5 -146.5t-36.5 -249.5zM383 111q29 -14 88 -15q63 0 113.5 28t84 79t51 120.5t17.5 155.5q0 94 -15 173t-48 136q-25 43 -60 72z" />
<glyph unicode="&#xf9;" horiz-adv-x="1153" d="M41 930q0 14 17.5 27.5t44 22.5t58.5 14t60 5h60q41 0 41 -38v-621q0 -41 12 -82t36.5 -72.5t60.5 -51t83 -19.5q100 0 248 104v641q0 23 -18.5 29t-42 8t-42 7t-18.5 26q0 29 58.5 49t181.5 20q39 0 39 -38v-832q0 -23 18 -30t42 -10t42 -7.5t18 -20.5t-18 -29.5 t-45 -22.5t-53.5 -14t-42.5 -5l-70 2q-49 0 -49 49v98q-160 -141 -307 -141q-143 0 -218 93t-75 249v520q0 23 -18.5 29t-42 8t-42 7t-18.5 26zM328 1327q0 25 15 40t42 15q16 0 30.5 -8t43.5 -37l225 -231h-53l-256 158q-47 29 -47 63z" />
<glyph unicode="&#xfa;" horiz-adv-x="1153" d="M41 930q0 14 17.5 27.5t44 22.5t58.5 14t60 5h60q41 0 41 -38v-621q0 -41 12 -82t36.5 -72.5t60.5 -51t83 -19.5q100 0 248 104v641q0 23 -18.5 29t-42 8t-42 7t-18.5 26q0 29 58.5 49t181.5 20q39 0 39 -38v-832q0 -23 18 -30t42 -10t42 -7.5t18 -20.5t-18 -29.5 t-45 -22.5t-53.5 -14t-42.5 -5l-70 2q-49 0 -49 49v98q-160 -141 -307 -141q-143 0 -218 93t-75 249v520q0 23 -18.5 29t-42 8t-42 7t-18.5 26zM348 1106l225 231q29 29 43.5 37t30.5 8q27 0 42.5 -15t15.5 -40q0 -35 -48 -63l-256 -158h-53z" />
<glyph unicode="&#xfb;" horiz-adv-x="1153" d="M41 930q0 14 17.5 27.5t44 22.5t58.5 14t60 5h60q41 0 41 -38v-621q0 -41 12 -82t36.5 -72.5t60.5 -51t83 -19.5q100 0 248 104v641q0 23 -18.5 29t-42 8t-42 7t-18.5 26q0 29 58.5 49t181.5 20q39 0 39 -38v-832q0 -23 18 -30t42 -10t42 -7.5t18 -20.5t-18 -29.5 t-45 -22.5t-53.5 -14t-42.5 -5l-70 2q-49 0 -49 49v98q-160 -141 -307 -141q-143 0 -218 93t-75 249v520q0 23 -18.5 29t-42 8t-42 7t-18.5 26zM326 1108l161 250h82l162 -250h-39l-164 152l-163 -152h-39z" />
<glyph unicode="&#xfc;" horiz-adv-x="1153" d="M41 930q0 14 17.5 27.5t44 22.5t58.5 14t60 5h60q41 0 41 -38v-621q0 -41 12 -82t36.5 -72.5t60.5 -51t83 -19.5q100 0 248 104v641q0 23 -18.5 29t-42 8t-42 7t-18.5 26q0 29 58.5 49t181.5 20q39 0 39 -38v-832q0 -23 18 -30t42 -10t42 -7.5t18 -20.5t-18 -29.5 t-45 -22.5t-53.5 -14t-42.5 -5l-70 2q-49 0 -49 49v98q-160 -141 -307 -141q-143 0 -218 93t-75 249v520q0 23 -18.5 29t-42 8t-42 7t-18.5 26zM336 1202q0 63 72 64q71 -1 71 -64t-71 -63q-72 0 -72 63zM553 1202q0 63 72 64q71 -1 71 -64t-71 -63q-72 0 -72 63z" />
<glyph unicode="&#xfd;" horiz-adv-x="1083" d="M41 971q4 29 41 28h330q39 0 39 -28q0 -12 -17.5 -19.5t-37 -15.5t-37 -18.5t-17.5 -24.5q0 4 1 0t3 -14l197 -576q6 -23 14 -22q10 0 16 22l195 576q2 2 2 12q0 16 -17.5 26.5t-37 18.5t-36.5 15t-17 20q0 29 38 28l273 2q39 1 39 -30q0 -12 -18.5 -20.5t-42 -18.5 t-47 -25.5t-32.5 -42.5l-383 -1095q-33 -94 -85 -131t-115 -39q-29 0 -65 9t-66.5 24.5t-51 37t-20.5 45.5q0 33 37 33q18 0 33.5 -8t32 -17.5t37 -17.5t53.5 -8q37 0 69.5 24.5t50.5 77.5l74 211l-293 854q-10 27 -32.5 42.5t-46 24.5t-42 17t-18.5 23zM389 1106l225 231 q29 29 43.5 37t30.5 8q27 0 42 -15t15 -40q0 -35 -47 -63l-256 -158h-53z" />
<glyph unicode="&#xfe;" horiz-adv-x="1069" d="M41 -377q0 18 18.5 22.5t42 7.5t42 10t18.5 30l2 1628q0 23 -18.5 29t-42 9t-42 8t-18.5 24q0 14 18.5 27.5t44 22.5t52 14t45.5 5h59q61 0 62 -39v-440q0 -27 16 -27q8 0 22 9q88 45 187 45q90 0 164.5 -37t129 -101.5t84 -149.5t29.5 -183q0 -104 -29.5 -201.5 t-89 -172.5t-148.5 -120t-208 -45q-39 0 -75.5 6t-83.5 19v-431q0 -39 -62 -38h-59q-18 0 -45 5t-52.5 14t-44 21.5t-18.5 28.5zM322 168q0 -25 19 -38t46 -19.5t53.5 -7.5t42.5 -1q63 0 122 28t102 82t68.5 135.5t25.5 187.5q0 166 -72 264t-203 98q-18 0 -53 -3 t-68.5 -12.5t-58 -25.5t-24.5 -41v-647z" />
<glyph unicode="&#xff;" horiz-adv-x="1083" d="M41 971q4 29 41 28h330q39 0 39 -28q0 -12 -17.5 -19.5t-37 -15.5t-37 -18.5t-17.5 -24.5q0 4 1 0t3 -14l197 -576q6 -23 14 -22q10 0 16 22l195 576q2 2 2 12q0 16 -17.5 26.5t-37 18.5t-36.5 15t-17 20q0 29 38 28l273 2q39 1 39 -30q0 -12 -18.5 -20.5t-42 -18.5 t-47 -25.5t-32.5 -42.5l-383 -1095q-33 -94 -85 -131t-115 -39q-29 0 -65 9t-66.5 24.5t-51 37t-20.5 45.5q0 33 37 33q18 0 33.5 -8t32 -17.5t37 -17.5t53.5 -8q37 0 69.5 24.5t50.5 77.5l74 211l-293 854q-10 27 -32.5 42.5t-46 24.5t-42 17t-18.5 23zM377 1202 q0 63 72 64q71 -1 71 -64t-71 -63q-72 0 -72 63zM594 1202q0 63 72 64q71 -1 71 -64t-71 -63q-72 0 -72 63z" />
<glyph unicode="&#x152;" horiz-adv-x="1886" d="M41 680q0 688 537 688h26q104 0 191 -31q6 23 39 23h899q41 0 41 -41v-139q0 -39 -31 -39q-18 0 -28.5 18.5t-19.5 41t-19.5 41t-28.5 18.5h-535q-39 0 -39 -37v-443q0 -41 43 -41h232q18 0 29.5 18.5t20.5 42t19 42t29 18.5q31 0 31 -41v-254q0 -45 -31 -45 q-18 0 -28.5 18.5t-19.5 42t-20.5 42t-29.5 18.5h-232q-43 0 -43 -45v-461q0 -35 35 -35h532q23 0 35.5 18.5t21.5 41t19 41t29 18.5q29 0 29 -39v-137q0 -43 -43 -43h-893q-35 0 -43 20q-92 -29 -191 -28h-26q-537 0 -537 688zM201 680q0 -276 107.5 -425t283.5 -163 q115 10 194 72q78 59 127 160l2 710q-51 105 -129 162q-80 61 -194 72q-176 -14 -283.5 -163t-107.5 -425z" />
<glyph unicode="&#x153;" horiz-adv-x="1638" d="M41 487q0 119 31.5 216.5t89 166t136.5 105.5t173 37q104 0 197.5 -49.5t148.5 -141.5q61 94 155.5 146.5t192.5 52.5q180 0 270.5 -131t90.5 -373q0 -31 -33 -31h-584q0 -86 19.5 -158.5t57.5 -124.5t92.5 -82t121.5 -30q94 0 217 51q41 0 41 -26q0 -25 -33.5 -46.5 t-80 -37t-93.5 -24.5t-71 -9q-100 0 -197.5 49t-157.5 135q-53 -98 -150 -147t-204 -49q-96 0 -175 35.5t-136.5 102t-88 159t-30.5 204.5zM207 487q0 -82 14.5 -152.5t47 -123.5t81.5 -84t121 -31q61 0 111.5 27t84 76t52 116.5t18.5 149.5v63q0 180 -67.5 280.5 t-196.5 100.5q-59 0 -111 -26q-82 -41 -118.5 -146.5t-36.5 -249.5zM918 606q0 -41 38 -41h390q42 0 38 41q-10 172 -64 248t-175 76q-109 0 -160 -87t-67 -237z" />
<glyph unicode="&#x178;" horiz-adv-x="1253" d="M41 1329q0 31 41 31h338q41 0 41 -31q0 -14 -16.5 -21.5t-45.5 -17.5l-28 -10q-14 -2 -15 -18q0 -10 6 -23l246 -444q10 -16 19 -17q6 0 16 17l238 444q6 12 6 21q0 12 -17 12l-30 8q-31 8 -45.5 22.5t-14.5 26.5q0 31 41 31h279q41 0 41 -31q0 -18 -18.5 -28.5 t-43 -18.5t-48 -18.5t-34.5 -30.5l-297 -559q-25 -45 -20 -68v-475q0 -20 18.5 -31.5t42 -20.5t42 -19.5t18.5 -28.5q0 -31 -41 -31h-320q-39 0 -39 31q0 18 18.5 28.5t41 19.5t41 20.5t18.5 29.5v479q0 29 -20 68l-318 557q-10 18 -33.5 28.5t-47 19.5t-42 19.5t-18.5 28.5 zM440 1579q0 63 72 63t72 -63t-72 -63t-72 63zM657 1579q0 63 72 63t72 -63t-72 -63t-72 63z" />
<glyph unicode="&#x2c6;" horiz-adv-x="559" d="M41 1108l162 250h82l161 -250h-38l-164 152l-164 -152h-39z" />
<glyph unicode="&#x2dc;" horiz-adv-x="651" d="M41 1116v94q39 43 74 58.5t67 15.5q14 0 44 -9t63 -20.5t62.5 -20.5t43.5 -9q31 0 65 18.5t79 65.5v-92q-39 -45 -74 -60.5t-70 -15.5q-14 0 -43.5 9t-62.5 20.5t-62.5 20.5t-44.5 9q-31 0 -64.5 -18.5t-76.5 -65.5z" />
<glyph unicode="&#x2000;" horiz-adv-x="858" />
<glyph unicode="&#x2001;" horiz-adv-x="1716" />
<glyph unicode="&#x2002;" horiz-adv-x="858" />
<glyph unicode="&#x2003;" horiz-adv-x="1716" />
<glyph unicode="&#x2004;" horiz-adv-x="572" />
<glyph unicode="&#x2005;" horiz-adv-x="429" />
<glyph unicode="&#x2006;" horiz-adv-x="286" />
<glyph unicode="&#x2007;" horiz-adv-x="286" />
<glyph unicode="&#x2008;" horiz-adv-x="214" />
<glyph unicode="&#x2009;" horiz-adv-x="343" />
<glyph unicode="&#x200a;" horiz-adv-x="95" />
<glyph unicode="&#x2010;" horiz-adv-x="751" d="M41 543q4 47 51 47h498q51 0 51 -47q0 -25 -15.5 -37t-35.5 -12h-500q-53 0 -49 49z" />
<glyph unicode="&#x2011;" horiz-adv-x="751" d="M41 543q4 47 51 47h498q51 0 51 -47q0 -25 -15.5 -37t-35.5 -12h-500q-53 0 -49 49z" />
<glyph unicode="&#x2012;" horiz-adv-x="751" d="M41 543q4 47 51 47h498q51 0 51 -47q0 -25 -15.5 -37t-35.5 -12h-500q-53 0 -49 49z" />
<glyph unicode="&#x2013;" horiz-adv-x="1054" d="M41 522q2 39 51 39h799q51 0 51 -39q0 -20 -15.5 -30.5t-35.5 -10.5h-801q-53 0 -49 41z" />
<glyph unicode="&#x2014;" horiz-adv-x="1595" d="M41 522q2 39 51 39h1340q51 0 51 -39q0 -20 -15.5 -30.5t-35.5 -10.5h-1342q-53 0 -49 41z" />
<glyph unicode="&#x2018;" horiz-adv-x="352" d="M41 1260v36q0 27 7 54.5t21.5 51t38 39t58.5 15.5q49 0 49 -33q0 -16 -20 -24l-25 -6q-23 -10 -30 -23.5t-9 -26.5h10q99 0 99 -90q0 -78 -99 -77q-47 0 -73.5 22.5t-26.5 61.5z" />
<glyph unicode="&#x2019;" horiz-adv-x="352" d="M41 1372q0 84 98 84q100 0 101 -84v-35q0 -27 -7.5 -55.5t-21.5 -51t-39 -37.5t-57 -15q-49 0 -49 32q0 20 20 23q4 4 11 5t14 3q23 8 29.5 22.5t9.5 24.5h-11q-98 0 -98 84z" />
<glyph unicode="&#x201a;" horiz-adv-x="352" d="M41 80q0 84 98 84q100 0 101 -84v-37q0 -27 -7.5 -55.5t-21.5 -51t-39 -38t-57 -15.5q-49 0 -49 33q0 14 10 20.5t22 10.5q4 0 6 1t7 1q23 8 29.5 21.5t9.5 25.5h-11q-98 0 -98 84z" />
<glyph unicode="&#x201c;" horiz-adv-x="571" d="M41 1260v36q0 27 7 54.5t21.5 51t38 39t58.5 15.5q49 0 49 -33q0 -16 -20 -24l-25 -6q-23 -10 -30 -23.5t-9 -26.5h10q99 0 99 -90q0 -78 -99 -77q-47 0 -73.5 22.5t-26.5 61.5zM258 1260v36q0 27 7 55.5t22.5 51t39 38t58.5 15.5q41 0 49 -33q0 -16 -20 -24l-25 -6 q-23 -10 -30 -23.5t-9 -26.5h8q101 1 101 -83t-101 -84q-47 0 -73.5 22.5t-26.5 61.5z" />
<glyph unicode="&#x201d;" horiz-adv-x="567" d="M41 1372q0 84 98 84q100 0 101 -84v-35q0 -27 -7.5 -55.5t-21.5 -51t-39 -37.5t-57 -15q-49 0 -49 32q0 20 20 23q4 4 11 5t14 3q23 8 29.5 22.5t9.5 24.5h-11q-98 0 -98 84zM256 1372q0 84 98 84q100 0 101 -84v-35q0 -27 -7.5 -55.5t-21.5 -51t-39 -37.5t-57 -15 q-49 0 -49 32q0 20 20 23q4 4 11 5t14 3q23 8 29.5 22.5t9.5 24.5h-11q-98 0 -98 84z" />
<glyph unicode="&#x201e;" horiz-adv-x="649" d="M41 76q0 84 98 84q100 0 101 -84v-35q0 -27 -7.5 -55.5t-21.5 -51t-39 -38t-57 -15.5q-49 0 -49 33q0 20 20 23q4 4 11 5t14 3q23 8 29.5 22.5t9.5 24.5h-11q-98 0 -98 84zM338 76q0 84 98 84q100 0 101 -84v-35q0 -27 -7.5 -55.5t-21.5 -51t-39 -38t-57 -15.5 q-49 0 -50 33q0 20 21 23q4 4 11 5t14 3q23 8 29.5 22.5t8.5 24.5h-10q-98 0 -98 84z" />
<glyph unicode="&#x2022;" horiz-adv-x="745" d="M41 719q0 61 23.5 114.5t64.5 93.5t94 63.5t115 23.5q59 0 113.5 -23.5t94.5 -63.5t63.5 -94.5t23.5 -113.5t-23.5 -113.5t-63.5 -95.5t-94.5 -64.5t-115.5 -23.5t-115.5 23.5t-94.5 64.5t-62.5 94t-22.5 115z" />
<glyph unicode="&#x2026;" horiz-adv-x="1155" d="M41 80q0 80 100 80q47 0 74 -21.5t27 -58.5q0 -80 -101 -80q-100 0 -100 80zM440 80q-2 41 26 60.5t75 19.5t73.5 -21.5t26.5 -58.5q0 -80 -100 -80q-98 0 -101 80zM842 80q0 80 100 80q47 0 73.5 -21.5t26.5 -58.5q0 -80 -100 -80t-100 80z" />
<glyph unicode="&#x202f;" horiz-adv-x="343" />
<glyph unicode="&#x2039;" horiz-adv-x="618" d="M41 504q0 -2 1 3l3 15l334 385q14 14 37 15h76q14 -1 14 -11q0 -6 -6 -14l-277 -377l-3 -15t-1 -3q2 -2 2 -4q0 -8 2 -13l275 -374q6 -12 6 -19q0 -10 -12 -10h-76q-23 0 -45 16l-324 389q-6 6 -6 17z" />
<glyph unicode="&#x203a;" horiz-adv-x="620" d="M41 909q0 12 16 13h74q25 -4 39 -15l334 -387q0 -4 1 -7t1 -5t2 -4q0 -10 -6 -17l-324 -389q-23 -16 -47 -16h-74q-14 0 -14 10t8 19l271 374q6 2 6 19l-4 16l-279 377q-2 2 -2 8q0 2 -2 4z" />
<glyph unicode="&#x205f;" horiz-adv-x="429" />
<glyph unicode="&#x20ac;" horiz-adv-x="1216" d="M41 625q2 39 41 39h102v63h-104q-39 0 -39 41q2 39 41 39h104q8 137 45 226t103 163q154 174 434 174q178 0 334 -82v-178q0 -59 -29 -59q-27 0 -49 59l-20 59q-61 100 -222 101q-141 0 -246.5 -85t-154.5 -251q-10 -39 -18.5 -60.5t-12.5 -66.5h414q41 0 41 -39 q0 -20 -12.5 -30.5t-28.5 -10.5h-416v-63h416q41 0 41 -39q0 -20 -12.5 -30.5t-28.5 -10.5h-408q4 -33 10.5 -82t14.5 -76q49 -166 154.5 -251t246.5 -85q160 0 222 100l20 60q23 59 49 59q31 0 31 -59v-180q-164 -80 -336 -80q-287 0 -436 172q-59 70 -94 184.5t-48 237.5 h-110q-39 0 -39 41z" />
<glyph unicode="&#x2122;" horiz-adv-x="1503" d="M41 1262v77q0 20 25 21h491q20 0 21 -21l2 -77q0 -23 -19 -23q-10 0 -15 10.5t-10.5 22.5t-11.5 22.5t-16 10.5h-127q-20 0 -21 -23v-596q0 -23 33 -29q33 -12 33 -26q0 -16 -23 -17h-174q-23 0 -22 17q0 8 10 14t22.5 11.5t22.5 11.5t10 16v598q0 23 -22 23h-137 q-10 0 -16.5 -10.5t-11.5 -22.5t-11 -22.5t-17 -10.5q-16 0 -16 23zM602 631q0 10 10.5 15t22.5 10.5t22.5 11.5t10.5 16v606q0 10 -10.5 16.5t-22.5 11.5t-22.5 10t-10.5 15q0 16 23 17h139q23 0 35 -35l194 -520q2 -8 8 -8q4 0 7 8l215 520q16 35 37 35h110q20 0 21 -17 q0 -18 -33 -26q-33 -6 -33 -29v-602q0 -12 10.5 -18t22.5 -11.5t22.5 -10.5t10.5 -15q0 -16 -25 -17h-170q-25 0 -25 17q0 10 10.5 15t23 10.5t22.5 11.5t10 16v522q0 8 -2 8t-12 -22l-201 -498q-16 -37 -37 -37q-23 0 -37 37l-200 520q-10 23 -13 23q-2 0 -2 -10v-541 q0 -12 10.5 -18t22.5 -11.5t22.5 -10.5t10.5 -15q0 -16 -23 -17h-151q-23 0 -23 17z" />
<glyph unicode="&#xe000;" horiz-adv-x="1003" d="M0 0v1004h1004v-1004h-1004z" />
<glyph unicode="&#xfb01;" horiz-adv-x="1085" d="M41 31q0 18 18.5 28.5t42 18.5t42 19.5t18.5 31.5v733q0 37 -41 37h-39q-41 0 -41 51q0 49 41 49h59q20 0 21 21q0 180 93 260t286 80q104 0 165.5 -18.5t92 -41t39 -43t8.5 -22.5q8 -14 8 -37q0 -78 -90 -78t-90 80q0 43 24 62q-29 10 -60.5 15t-59.5 5 q-123 0 -189.5 -56.5t-66.5 -205.5q0 -20 18 -21h473q41 0 41 -38v-809q0 -23 18.5 -36.5t41 -25.5t41 -25.5t18.5 -33.5q0 -31 -39 -31h-320q-41 0 -41 31q0 23 18.5 36t42 24t42 23.5t18.5 35.5v710q0 39 -59 39h-295q-18 0 -18 -20v-750q0 -20 18 -31.5t40.5 -19.5 t41 -18.5t18.5 -28.5q0 -31 -39 -31h-319q-41 0 -41 31z" />
<glyph unicode="&#xfb02;" horiz-adv-x="1114" d="M41 33q0 18 18.5 28.5t42 19.5t42 20.5t18.5 31.5v731q0 37 -41 37h-39q-41 0 -41 51q0 49 41 49h59q20 0 21 21q0 123 29.5 208t99 136t184.5 73.5t287 22.5h80q39 0 39 -41v-1290q0 -18 18.5 -29.5t42 -20.5t41.5 -19.5t18 -28.5q0 -31 -38 -31h-322q-39 0 -39 29 q0 18 18.5 28.5t41 20.5t41 21.5t18.5 31.5v1190q0 20 -15.5 37.5t-43.5 17.5q-43 0 -46 -2h-4q-90 0 -146 -23.5t-88 -69.5t-44 -111.5t-12 -149.5q0 -20 20 -21h98q41 0 41 -49q0 -51 -39 -51h-100q-20 0 -20 -18v-752q0 -18 18 -29.5t40.5 -20.5t41 -19.5t18.5 -28.5 q0 -31 -39 -31h-319q-41 0 -41 31z" />
</font>
</defs>
</svg>
