<?xml version="1.0" encoding="UTF-8"?>
<!-- Generator: Adobe Illustrator 19.0.0, SVG Export Plug-In . SVG Version: 6.00 Build 0)  -->
<svg version="1.1" id="Graphic" xmlns="http://www.w3.org/2000/svg" xmlns:xlink="http://www.w3.org/1999/xlink" x="0px" y="0px" viewBox="0 0 491 112" style="enable-background:new 0 0 491 112;" xml:space="preserve">
<style type="text/css">
	.st0{display:none;fill-rule:evenodd;clip-rule:evenodd;fill:#FFFFFF;}
	.st1{fill:#404447;}
	.st2{fill:#2791D0;}
</style>
<rect id="BackGround" x="-52.5" y="-43.6" class="st0" width="595.3" height="199"/>
<path id="Micro" class="st1" d="M91.5,83.5V42.6c0-3.8-0.6-6.9-2-9.1c-1.3-2.3-3.3-3.9-6.1-4.9c-2.7-1-6.2-1.5-10.5-1.5  c-1.7,0-3.6,0.1-5.7,0.3c-2.1,0.2-4.3,0.5-6.6,0.8c-2.3,0.4-4.4,0.8-6.5,1.3c-2.1,0.5-3.9,1-5.4,1.6c-1.5-1.4-3.5-2.4-5.9-3.1  c-2.4-0.7-5.4-1-8.7-1c-1.7,0-3.7,0.1-5.8,0.3c-2.1,0.2-4.2,0.4-6.4,0.8c-2.2,0.3-4.2,0.7-6.1,1.1c-1.9,0.4-3.6,0.9-5,1.4  c-1.3,0.4-2.4,0.9-3.1,1.4c-0.8,0.5-1.3,1.1-1.7,1.7c-0.4,0.6-0.6,1.3-0.7,2.2c-0.1,0.8-0.1,1.7-0.1,2.8v44.7c0,0.5,0.2,0.9,0.4,1.2  c0.3,0.3,0.7,0.4,1.2,0.4h5.4c0.5,0,0.9-0.2,1.1-0.4c0.3-0.3,0.4-0.7,0.4-1.2V37c0,0,0.6-0.2,1.7-0.5c1.1-0.3,2.7-0.6,4.6-1  c1.9-0.4,4.1-0.7,6.5-1c2.4-0.3,4.9-0.4,7.4-0.5c2.5,0,4.5,0.3,6,0.9c1.5,0.6,2.6,1.6,3.3,3c0.7,1.4,1,3.3,1,5.7v39.9  c0,0.5,0.2,0.9,0.4,1.2c0.3,0.3,0.7,0.4,1.2,0.4H51c0.5,0,0.9-0.1,1.2-0.4c0.2-0.3,0.3-0.7,0.3-1.2V37c0,0,0.6-0.2,1.8-0.5  c1.1-0.3,2.7-0.6,4.6-1c1.9-0.4,4.1-0.7,6.5-1c2.4-0.3,4.9-0.4,7.4-0.5c2.5,0,4.5,0.3,6,0.9c1.5,0.6,2.6,1.6,3.2,3  c0.6,1.4,1,3.3,1,5.7v39.9c0,0.5,0.2,0.9,0.5,1.2c0.3,0.3,0.7,0.4,1.3,0.4h5.3c0.5,0,0.9-0.2,1.2-0.4C91.3,84.3,91.5,83.9,91.5,83.5  L91.5,83.5z M108.5,17.3V5.6c0-0.5-0.2-0.9-0.4-1.2c-0.3-0.3-0.7-0.4-1.2-0.4h-5.3c-0.5,0-0.9,0.2-1.2,0.4c-0.3,0.3-0.4,0.7-0.4,1.2  v11.6c0,0.4,0.2,0.8,0.4,1.1c0.3,0.3,0.7,0.4,1.2,0.4h5.3c0.5,0,0.9-0.2,1.2-0.4C108.3,18.1,108.5,17.7,108.5,17.3L108.5,17.3z   M108.5,83.5V30.1c0-0.5-0.2-0.9-0.4-1.2c-0.3-0.3-0.7-0.4-1.2-0.4h-5.3c-0.5,0-0.9,0.2-1.2,0.4c-0.3,0.3-0.4,0.7-0.4,1.2v53.4  c0,0.5,0.2,0.9,0.4,1.2c0.3,0.3,0.7,0.4,1.2,0.4h5.3c0.5,0,0.9-0.2,1.2-0.4C108.3,84.3,108.5,83.9,108.5,83.5L108.5,83.5z M160,81.7  l-0.8-3.4c-0.1-0.4-0.3-0.8-0.4-1c-0.2-0.2-0.5-0.3-0.8-0.3c-0.1,0-0.1,0-0.3,0.1c-0.1,0-0.2,0.1-0.4,0.1c-0.6,0.2-1.4,0.4-2.4,0.6  c-1,0.3-2.2,0.5-3.5,0.8c-1.3,0.3-2.7,0.5-4.2,0.6c-1.5,0.2-2.9,0.3-4.3,0.3c-3.2,0-5.9-0.4-8.1-1.1c-2.2-0.8-3.9-2-5.2-3.8  c-1.3-1.7-2.2-4.1-2.8-7c-0.6-2.9-0.9-6.5-0.8-10.8c0-4.3,0.3-7.9,0.8-10.8c0.6-2.9,1.5-5.2,2.8-7c1.3-1.7,3.1-3,5.2-3.8  c2.2-0.8,4.9-1.1,8.1-1.1c1.4,0,2.9,0.1,4.3,0.3c1.5,0.2,2.8,0.4,4.2,0.7c1.3,0.3,2.5,0.6,3.5,0.9c1,0.3,1.8,0.5,2.4,0.7  c0.2,0,0.3,0,0.4,0.1c0.1,0,0.2,0.1,0.3,0.1c0.4,0,0.6-0.1,0.8-0.3c0.2-0.2,0.3-0.5,0.4-1l0.8-3.7c0-0.1,0-0.1,0.1-0.2  c0-0.1,0.1-0.2,0.1-0.3c0-0.5-0.2-0.8-0.4-1c-0.3-0.2-0.5-0.3-0.7-0.4c-0.7-0.3-1.6-0.6-2.8-0.9c-1.2-0.3-2.6-0.6-4.1-0.9  c-1.5-0.3-3.1-0.5-4.8-0.7c-1.7-0.2-3.3-0.3-4.9-0.3c-5,0-9.2,0.6-12.5,1.8c-3.3,1.2-5.9,3-7.8,5.5c-1.9,2.4-3.2,5.5-4,9.3  c-0.8,3.7-1.2,8.1-1.1,13.2c0,5,0.4,9.4,1.1,13.1c0.8,3.7,2.1,6.8,4,9.3c1.9,2.4,4.5,4.3,7.8,5.5c3.3,1.2,7.5,1.8,12.5,1.8  c1.6,0,3.2-0.1,4.9-0.3c1.7-0.2,3.3-0.4,4.8-0.7c1.5-0.3,2.9-0.6,4.1-0.9c1.2-0.3,2.2-0.6,2.8-0.9c0.2-0.1,0.4-0.2,0.7-0.4  c0.3-0.2,0.4-0.5,0.4-1c0-0.1,0-0.2-0.1-0.3C160,81.9,160,81.8,160,81.7L160,81.7z M197,33.3v-4.6c0-0.7-0.2-1.1-0.6-1.3  c-0.3-0.2-0.6-0.3-1-0.3h-2.7c-1.3,0-2.8,0.1-4.6,0.3c-1.7,0.2-3.5,0.4-5.4,0.7c-1.9,0.3-3.6,0.7-5.3,1.1c-1.7,0.4-3.1,0.9-4.3,1.5  c-1.2,0.6-2.2,1.1-2.8,1.7c-0.7,0.6-1.1,1.4-1.4,2.4c-0.3,1-0.4,2.2-0.4,3.8v45c0,0.3,0.2,0.6,0.4,0.8c0.3,0.3,0.5,0.4,0.8,0.6  c0.3,0.1,0.4,0.2,0.4,0.2h5.4c0.5,0,0.9-0.2,1.1-0.4c0.3-0.3,0.4-0.7,0.4-1.2V36.7c2-0.5,4-0.9,6-1.2c2-0.3,4.1-0.5,6.2-0.6  c2.1-0.1,4.4-0.2,6.7-0.2c0.4,0,0.6-0.1,0.8-0.4C197,34,197,33.7,197,33.3L197,33.3z M229.3,27.2c3.1,0.2,5.7,0.7,8,1.4  c3,1,5.5,2.4,7.3,4.3c1.9,1.8,3.3,4,4.2,6.5c1,2.5,1.6,5.2,1.9,8.2c0.3,3,0.5,6.1,0.5,9.3c0,3.3-0.1,6.3-0.5,9.3  c-0.3,2.9-1,5.7-1.9,8.1c-1,2.5-2.4,4.6-4.2,6.4c-1.9,1.8-4.3,3.3-7.3,4.3c-2.3,0.8-5,1.2-8.1,1.4c-0.1,0-0.2,0-0.3,0  c-0.6,0-0.8-0.4-0.8-0.8c0-1.6,0-3.1,0-4.8c0-0.4-0.1-1.2,1.1-1.3c1.7-0.2,3.2-0.5,4.5-0.9c2-0.7,3.6-1.7,4.8-3  c1.2-1.3,2-2.9,2.6-4.8c0.5-1.9,0.9-4,1-6.3c0.2-2.3,0.2-4.9,0.2-7.6c0-2.7,0-5.3-0.2-7.6c-0.1-2.4-0.5-4.5-1-6.3  c-0.6-1.9-1.4-3.5-2.6-4.8c-1.2-1.3-2.8-2.3-4.8-3c-1.2-0.4-2.7-0.7-4.4-0.9c-1.3-0.1-1.2-0.6-1.2-1.2c0-1.5,0-3.1,0-4.6  C228.2,27.7,228,27.1,229.3,27.2z"/>
<path id="Apps" class="st2" d="M310.9,73.6V44.3c0-3.2-0.6-5.9-1.7-8.3c-1.2-2.4-3.1-4.3-5.7-5.7c-1.9-1.1-4.2-1.9-7-2.4  c-2.8-0.5-6-0.8-9.7-0.8c-3.1,0-6,0.2-8.7,0.5c-2.8,0.3-5.2,0.7-7.5,1.2c-2.2,0.5-4.1,0.9-5.5,1.4c-1.5,0.4-2.5,0.8-3,1  c-0.4,0.1-0.7,0.4-1,0.6c-0.3,0.3-0.4,0.7-0.4,1.2c0,0.1,0,0.2,0,0.3c0,0.1,0,0.2,0.1,0.3l1.9,8.6c0.1,0.3,0.2,0.6,0.4,0.7  c0.2,0.2,0.5,0.3,0.8,0.3c0.2,0,0.3,0,0.4,0c0.1,0,0.3,0,0.4-0.1c0.6-0.2,1.5-0.4,2.7-0.8c1.2-0.3,2.7-0.6,4.3-1  c1.6-0.3,3.3-0.6,5.1-0.9c1.8-0.2,3.5-0.4,5.1-0.4c1.5,0,2.9,0.1,4,0.3c1.2,0.2,2.1,0.4,2.7,0.8c0.8,0.4,1.3,1,1.6,1.8  c0.3,0.8,0.4,1.8,0.4,3.1v1.9l-18.1,2.8c-1.3,0.2-2.7,0.4-4.2,0.8c-1.5,0.4-2.9,0.9-4.3,1.6c-1.4,0.7-2.6,1.7-3.8,2.9  c-1.1,1.2-2,2.8-2.7,4.6c-0.7,1.9-1,4.2-1,6.8c0,3.3,0.5,6.1,1.5,8.3c1,2.2,2.3,4.1,4,5.5c1.7,1.4,3.7,2.4,6,3.2  c2.3,0.7,4.7,1.2,7.4,1.5c2.6,0.3,5.4,0.4,8.2,0.4c3.3,0,6.2-0.1,8.8-0.3c2.6-0.2,5-0.6,7.3-1.1c1.8-0.4,3.4-0.8,4.8-1.3  c1.4-0.5,2.5-1.1,3.4-1.9c0.9-0.8,1.6-1.8,2.1-3.1C310.7,77.5,310.9,75.8,310.9,73.6L310.9,73.6z M222.8,27.2  c-3.1,0.2-5.7,0.7-8,1.4c-3,1-5.5,2.4-7.3,4.3c-1.9,1.8-3.3,4-4.2,6.5c-1,2.5-1.6,5.2-1.9,8.2c-0.3,3-0.5,6.1-0.5,9.3  c0,3.3,0.1,6.3,0.5,9.3c0.3,2.9,1,5.7,1.9,8.1c1,2.5,2.4,4.6,4.2,6.4c1.9,1.8,4.3,3.3,7.3,4.3c2.3,0.8,5,1.2,8.1,1.4  c0.1,0,0.2,0,0.3,0c0.6,0,0.8-0.4,0.8-0.8c0-1.6,0-3.1,0-4.8c0-0.4,0.1-1.2-1.1-1.3c-1.7-0.2-3.2-0.5-4.5-0.9c-2-0.7-3.6-1.7-4.8-3  c-1.2-1.3-2-2.9-2.6-4.8c-0.5-1.9-0.9-4-1-6.3c-0.2-2.3-0.2-4.9-0.2-7.6c0-2.7,0-5.3,0.2-7.6c0.1-2.4,0.5-4.5,1-6.3  c0.6-1.9,1.4-3.5,2.6-4.8c1.2-1.3,2.8-2.3,4.8-3c1.2-0.4,2.7-0.7,4.4-0.9c1.3-0.1,1.2-0.6,1.2-1.2c0-1.5,0-3.1,0-4.6  C223.9,27.7,224.1,27.1,222.8,27.2L222.8,27.2z M230.3,69.1c0,0.4-0.2,0.8-0.4,1.1c-0.3,0.3-0.7,0.4-1.2,0.4h-5.3  c-0.5,0-0.9-0.2-1.2-0.4c-0.3-0.3-0.4-0.6-0.4-1.1v-5.4c0-0.5,0.2-0.9,0.4-1.2c0.3-0.3,0.7-0.4,1.2-0.4h5.3c0.5,0,0.9,0.2,1.2,0.4  c0.3,0.3,0.4,0.7,0.4,1.2V69.1L230.3,69.1z M230.3,49.9c0,0.4-0.2,0.8-0.4,1.1c-0.3,0.3-0.7,0.4-1.2,0.4h-5.3  c-0.5,0-0.9-0.2-1.2-0.4c-0.3-0.3-0.4-0.6-0.4-1.1v-5.4c0-0.5,0.2-0.9,0.4-1.2c0.3-0.3,0.7-0.4,1.2-0.4h5.3c0.5,0,0.9,0.2,1.2,0.4  c0.3,0.3,0.4,0.7,0.4,1.2V49.9L230.3,49.9z M291.2,73.5c0,0-0.4,0.1-1.1,0.2c-0.7,0.1-1.5,0.3-2.6,0.4c-1.1,0.1-2.2,0.2-3.4,0.2  c-0.8,0-1.7-0.1-2.6-0.3c-0.9-0.2-1.8-0.5-2.6-1c-0.8-0.5-1.5-1.2-2-2.1c-0.5-0.9-0.8-2.1-0.8-3.6c0-1.9,0.3-3.3,0.9-4.3  c0.6-1,1.3-1.7,2.3-2c1-0.4,2-0.7,3.2-0.8l8.6-1.4V73.5L291.2,73.5z M373.8,56.8c0-3.3-0.1-6.5-0.4-9.5c-0.3-3-0.9-5.7-1.8-8.2  c-0.9-2.5-2.2-4.6-4-6.4c-1.8-1.8-4.2-3.2-7.1-4.2c-3-1-6.6-1.5-11.1-1.5c-2.5,0-5,0.1-7.7,0.3c-2.6,0.2-5.2,0.5-7.8,1  c-2.6,0.4-5.1,1.1-7.6,1.8c-1.1,0.3-2.1,0.6-3.1,1c-0.9,0.4-1.8,0.9-2.5,1.5c-0.7,0.6-1.3,1.5-1.7,2.6c-0.4,1.1-0.6,2.5-0.6,4.2  v65.9c0,0.8,0.2,1.4,0.6,1.7c0.4,0.3,0.9,0.5,1.5,0.5c0.1,0,0.2,0,0.3,0c0.1,0,0.3,0,0.4-0.1l15.2-2.3c0.8-0.1,1.4-0.4,1.7-1  c0.3-0.5,0.4-1.3,0.4-2.2V91.6l-1.2-7.1c2,0.6,4.2,1.1,6.5,1.4c2.3,0.3,4.8,0.5,7.4,0.5c4.1,0,7.5-0.6,10.2-1.8  c2.7-1.2,4.9-2.8,6.5-4.8c1.6-2,2.8-4.3,3.6-6.9c0.8-2.6,1.3-5.2,1.6-8C373.7,62.2,373.8,59.5,373.8,56.8L373.8,56.8z M353.2,56.1  c0,3.1-0.1,5.7-0.3,7.8c-0.2,2.1-0.5,3.8-0.9,5c-0.4,1.2-1,2.2-1.7,2.8c-0.7,0.6-1.6,1-2.6,1.2c-1,0.2-2.3,0.3-3.7,0.3  c-0.8,0-1.7-0.1-2.5-0.1c-0.8-0.1-1.5-0.2-2-0.3c-0.5-0.1-0.8-0.1-0.8-0.1V41.2c0,0,0.4-0.1,1-0.2c0.7-0.1,1.5-0.3,2.5-0.4  c1-0.1,2.1-0.2,3.2-0.2c1.2,0,2.3,0.1,3.2,0.2c0.9,0.2,1.6,0.5,2.2,1.1c0.6,0.6,1,1.4,1.4,2.6c0.3,1.1,0.6,2.7,0.7,4.6  C353.2,50.7,353.2,53.2,353.2,56.1L353.2,56.1z M435.1,56.8c0-3.3-0.1-6.5-0.4-9.5c-0.3-3-0.9-5.7-1.8-8.2c-0.9-2.5-2.2-4.6-4-6.4  c-1.8-1.8-4.2-3.2-7.1-4.2c-3-1-6.6-1.5-11.1-1.5c-2.5,0-5,0.1-7.7,0.3c-2.6,0.2-5.2,0.5-7.8,1c-2.6,0.4-5.1,1.1-7.6,1.8  c-1.1,0.3-2.1,0.6-3.1,1c-0.9,0.4-1.8,0.9-2.5,1.5c-0.7,0.6-1.3,1.5-1.7,2.6c-0.4,1.1-0.6,2.5-0.6,4.2v65.9c0,0.8,0.2,1.4,0.6,1.7  c0.4,0.3,0.9,0.5,1.5,0.5c0.1,0,0.2,0,0.3,0c0.1,0,0.3,0,0.4-0.1l15.2-2.3c0.8-0.1,1.4-0.4,1.7-1c0.3-0.5,0.4-1.3,0.4-2.2V91.6  l-1.2-7.1c2,0.6,4.2,1.1,6.5,1.4c2.3,0.3,4.8,0.5,7.4,0.5c4.1,0,7.5-0.6,10.2-1.8c2.7-1.2,4.9-2.8,6.5-4.8c1.6-2,2.8-4.3,3.6-6.9  c0.8-2.6,1.3-5.2,1.6-8C435,62.2,435.1,59.5,435.1,56.8L435.1,56.8z M414.5,56.1c0,3.1-0.1,5.7-0.3,7.8c-0.2,2.1-0.5,3.8-0.9,5  c-0.4,1.2-1,2.2-1.7,2.8c-0.7,0.6-1.6,1-2.6,1.2c-1,0.2-2.3,0.3-3.7,0.3c-0.8,0-1.7-0.1-2.5-0.1c-0.8-0.1-1.5-0.2-2-0.3  c-0.5-0.1-0.8-0.1-0.8-0.1V41.2c0,0,0.4-0.1,1-0.2c0.7-0.1,1.5-0.3,2.5-0.4c1-0.1,2.1-0.2,3.2-0.2c1.2,0,2.3,0.1,3.2,0.2  c0.9,0.2,1.6,0.5,2.2,1.1c0.6,0.6,1,1.4,1.4,2.6c0.3,1.1,0.6,2.7,0.7,4.6C414.4,50.7,414.5,53.2,414.5,56.1L414.5,56.1z M485.1,67.3  c0-3.3-0.4-6-1.3-8.2c-0.8-2.1-2-3.8-3.4-5c-1.4-1.2-3-2.2-4.8-2.8c-1.8-0.6-3.6-1.1-5.4-1.4c-1.3-0.3-2.5-0.5-3.6-0.7  c-1.1-0.2-2.1-0.5-2.9-0.9c-0.8-0.4-1.5-0.9-2-1.6c-0.5-0.7-0.7-1.6-0.7-2.8c0-1,0.3-1.7,0.7-2.3c0.5-0.6,1.1-1,1.8-1.2  c0.7-0.3,1.5-0.4,2.3-0.5c0.8-0.1,1.5-0.1,2.1-0.1c1.8,0,3.6,0.1,5.2,0.3c1.7,0.2,3.1,0.4,4.3,0.6c1.2,0.2,1.9,0.3,2.2,0.4  c0.1,0,0.2,0,0.3,0.1c0.1,0,0.2,0.1,0.2,0.1c0.4,0,0.8-0.1,1.2-0.3c0.3-0.2,0.6-0.5,0.7-0.9l1.4-8.1v-0.5c0-0.3-0.1-0.7-0.3-1  c-0.2-0.3-0.5-0.6-1-0.7c-0.8-0.3-2.1-0.6-3.8-1c-1.7-0.4-3.7-0.8-6-1.1c-2.3-0.3-4.9-0.5-7.7-0.5c-1.9,0-3.9,0.1-6.1,0.3  c-2.2,0.2-4.3,0.6-6.4,1.3c-2.1,0.7-4,1.7-5.7,3c-1.7,1.3-3.1,3.1-4.2,5.3c-1,2.2-1.5,5-1.6,8.4c0,3.1,0.4,5.7,1.1,7.7  c0.7,2.1,1.7,3.7,3,5c1.2,1.3,2.6,2.3,4.2,3c1.6,0.7,3.2,1.3,4.9,1.7c1.7,0.4,3.3,0.7,4.9,1c1.5,0.3,2.6,0.6,3.5,0.9  c0.9,0.4,1.5,0.9,1.9,1.5c0.4,0.7,0.6,1.6,0.6,2.8c0,1.3-0.4,2.3-1.1,2.9c-0.7,0.7-1.5,1.1-2.5,1.4c-1,0.3-2,0.4-3,0.3  c-1.5,0-3-0.1-4.5-0.3c-1.6-0.2-3.1-0.4-4.5-0.7c-1.4-0.3-2.7-0.5-3.7-0.8c-1.1-0.2-1.8-0.4-2.2-0.5h-0.6c-0.3,0-0.5,0.1-0.7,0.3  c-0.2,0.2-0.4,0.6-0.5,1.2l-1.4,8.1c-0.1,0.2-0.1,0.3-0.1,0.5c0,0.2,0,0.3,0,0.4c0,0.7,0.2,1.1,0.5,1.4c0.3,0.2,0.6,0.4,0.8,0.5  c0.6,0.3,1.5,0.5,2.8,0.9c1.3,0.3,2.9,0.6,4.7,1c1.8,0.3,3.8,0.6,6,0.8c2.2,0.2,4.4,0.3,6.7,0.3c3.4,0,6.6-0.3,9.4-1  c2.9-0.7,5.4-1.8,7.5-3.3c2.1-1.5,3.8-3.5,5-5.9C484.5,73.8,485.1,70.8,485.1,67.3z"/>
</svg>
